<svg width="1160" height="364" viewBox="0 0 1160 364" fill="none" xmlns="http://www.w3.org/2000/svg">
<rect width="1160" height="364" fill="white"/>
<path d="M350 144L580 96L810 144" stroke="black" stroke-width="4" stroke-linecap="round"/>
<path d="M190 220L300 172L410 220" stroke="black" stroke-width="4" stroke-linecap="round"/>
<path d="M135 296L160 248L185 296" stroke="black" stroke-width="4" stroke-linecap="round"/>
<path d="M415 296L440 248L465 296" stroke="black" stroke-width="4" stroke-linecap="round"/>
<path d="M695 296L720 248L745 296" stroke="black" stroke-width="4" stroke-linecap="round"/>
<path d="M975 296L1000 248L1025 296" stroke="black" stroke-width="4" stroke-linecap="round"/>
<path d="M750 220L860 172L970 220" stroke="black" stroke-width="4" stroke-linecap="round"/>
<rect x="530" y="40" width="100" height="56" rx="4" fill="#FFBE25"/>
<path d="M560 83.32C559.28 83.32 558.547 83.2533 557.8 83.12C557.08 82.9867 556.4 82.7467 555.76 82.4C555.12 82.0533 554.547 81.6133 554.04 81.08C553.533 80.52 553.12 79.92 552.8 79.28C552.507 78.6133 552.293 77.92 552.16 77.2C552.053 76.4533 552 75.72 552 75V61.6C552 60.88 552.053 60.16 552.16 59.44C552.293 58.6933 552.507 58 552.8 57.36C553.12 56.6933 553.533 56.0933 554.04 55.56C554.547 55 555.12 54.5467 555.76 54.2C556.4 53.8533 557.08 53.6133 557.8 53.48C558.547 53.3467 559.28 53.28 560 53.28C560.72 53.28 561.44 53.3467 562.16 53.48C562.907 53.6133 563.6 53.8533 564.24 54.2C564.88 54.5467 565.453 55 565.96 55.56C566.467 56.0933 566.867 56.6933 567.16 57.36C567.48 58 567.693 58.6933 567.8 59.44C567.933 60.16 568 60.88 568 61.6V75C568 75.72 567.933 76.4533 567.8 77.2C567.693 77.92 567.48 78.6133 567.16 79.28C566.867 79.92 566.467 80.52 565.96 81.08C565.453 81.6133 564.88 82.0533 564.24 82.4C563.6 82.7467 562.907 82.9867 562.16 83.12C561.44 83.2533 560.72 83.32 560 83.32ZM560 79.12C560.48 79.12 560.933 79 561.36 78.76C561.813 78.52 562.16 78.2 562.4 77.8C562.667 77.3733 562.84 76.92 562.92 76.44C563 75.96 563.04 75.48 563.04 75V61.6C563.04 61.12 563 60.64 562.92 60.16C562.84 59.68 562.667 59.24 562.4 58.84C562.16 58.4133 561.813 58.08 561.36 57.84C560.933 57.6 560.48 57.48 560 57.48C559.52 57.48 559.053 57.6 558.6 57.84C558.173 58.08 557.827 58.4133 557.56 58.84C557.32 59.24 557.16 59.68 557.08 60.16C557 60.64 556.96 61.12 556.96 61.6V75C556.96 75.48 557 75.96 557.08 76.44C557.16 76.92 557.32 77.3733 557.56 77.8C557.827 78.2 558.173 78.52 558.6 78.76C559.053 79 559.52 79.12 560 79.12ZM560 71.68C559.787 71.68 559.587 71.64 559.4 71.56C559.213 71.48 559.053 71.36 558.92 71.2C558.813 71.0133 558.733 70.8267 558.68 70.64C558.653 70.4267 558.64 70.2133 558.64 70V66.6C558.64 66.3867 558.653 66.1867 558.68 66C558.733 65.7867 558.813 65.6 558.92 65.44C559.053 65.2533 559.213 65.12 559.4 65.04C559.587 64.96 559.787 64.92 560 64.92C560.213 64.92 560.413 64.96 560.6 65.04C560.787 65.12 560.933 65.2533 561.04 65.44C561.173 65.6 561.253 65.7867 561.28 66C561.333 66.1867 561.36 66.3867 561.36 66.6V70C561.36 70.2133 561.333 70.4267 561.28 70.64C561.253 70.8267 561.173 71.0133 561.04 71.2C560.933 71.36 560.787 71.48 560.6 71.56C560.413 71.64 560.213 71.68 560 71.68ZM580 83.32C579.28 83.32 578.547 83.2533 577.8 83.12C577.08 82.9867 576.4 82.7467 575.76 82.4C575.12 82.0533 574.547 81.6133 574.04 81.08C573.533 80.52 573.12 79.92 572.8 79.28C572.507 78.6133 572.293 77.92 572.16 77.2C572.053 76.4533 572 75.72 572 75V61.6C572 60.88 572.053 60.16 572.16 59.44C572.293 58.6933 572.507 58 572.8 57.36C573.12 56.6933 573.533 56.0933 574.04 55.56C574.547 55 575.12 54.5467 575.76 54.2C576.4 53.8533 577.08 53.6133 577.8 53.48C578.547 53.3467 579.28 53.28 580 53.28C580.72 53.28 581.44 53.3467 582.16 53.48C582.907 53.6133 583.6 53.8533 584.24 54.2C584.88 54.5467 585.453 55 585.96 55.56C586.467 56.0933 586.867 56.6933 587.16 57.36C587.48 58 587.693 58.6933 587.8 59.44C587.933 60.16 588 60.88 588 61.6V75C588 75.72 587.933 76.4533 587.8 77.2C587.693 77.92 587.48 78.6133 587.16 79.28C586.867 79.92 586.467 80.52 585.96 81.08C585.453 81.6133 584.88 82.0533 584.24 82.4C583.6 82.7467 582.907 82.9867 582.16 83.12C581.44 83.2533 580.72 83.32 580 83.32ZM580 79.12C580.48 79.12 580.933 79 581.36 78.76C581.813 78.52 582.16 78.2 582.4 77.8C582.667 77.3733 582.84 76.92 582.92 76.44C583 75.96 583.04 75.48 583.04 75V61.6C583.04 61.12 583 60.64 582.92 60.16C582.84 59.68 582.667 59.24 582.4 58.84C582.16 58.4133 581.813 58.08 581.36 57.84C580.933 57.6 580.48 57.48 580 57.48C579.52 57.48 579.053 57.6 578.6 57.84C578.173 58.08 577.827 58.4133 577.56 58.84C577.32 59.24 577.16 59.68 577.08 60.16C577 60.64 576.96 61.12 576.96 61.6V75C576.96 75.48 577 75.96 577.08 76.44C577.16 76.92 577.32 77.3733 577.56 77.8C577.827 78.2 578.173 78.52 578.6 78.76C579.053 79 579.52 79.12 580 79.12ZM580 71.68C579.787 71.68 579.587 71.64 579.4 71.56C579.213 71.48 579.053 71.36 578.92 71.2C578.813 71.0133 578.733 70.8267 578.68 70.64C578.653 70.4267 578.64 70.2133 578.64 70V66.6C578.64 66.3867 578.653 66.1867 578.68 66C578.733 65.7867 578.813 65.6 578.92 65.44C579.053 65.2533 579.213 65.12 579.4 65.04C579.587 64.96 579.787 64.92 580 64.92C580.213 64.92 580.413 64.96 580.6 65.04C580.787 65.12 580.933 65.2533 581.04 65.44C581.173 65.6 581.253 65.7867 581.28 66C581.333 66.1867 581.36 66.3867 581.36 66.6V70C581.36 70.2133 581.333 70.4267 581.28 70.64C581.253 70.8267 581.173 71.0133 581.04 71.2C580.933 71.36 580.787 71.48 580.6 71.56C580.413 71.64 580.213 71.68 580 71.68ZM600.12 83.32C599.427 83.32 598.747 83.2533 598.08 83.12C597.413 83.0133 596.773 82.8133 596.16 82.52C595.573 82.2 595.027 81.8133 594.52 81.36C594.04 80.88 593.64 80.3467 593.32 79.76C593 79.1467 592.747 78.52 592.56 77.88C592.4 77.2133 592.293 76.5467 592.24 75.88H597.24C597.267 76.28 597.333 76.68 597.44 77.08C597.573 77.4533 597.76 77.8 598 78.12C598.24 78.44 598.547 78.6933 598.92 78.88C599.293 79.04 599.693 79.12 600.12 79.12C600.493 79.12 600.853 79.0267 601.2 78.84C601.547 78.6267 601.827 78.36 602.04 78.04C602.253 77.72 602.427 77.3867 602.56 77.04C602.693 76.6667 602.787 76.2933 602.84 75.92C602.92 75.52 602.973 75.1333 603 74.76C603.027 74.36 603.04 73.9733 603.04 73.6C603.04 73.2 603.027 72.8133 603 72.44C602.973 72.0667 602.92 71.6933 602.84 71.32C602.787 70.9467 602.693 70.5733 602.56 70.2C602.453 69.8267 602.293 69.48 602.08 69.16C601.893 68.84 601.627 68.5867 601.28 68.4C600.96 68.1867 600.613 68.08 600.24 68.08C599.893 68.08 599.56 68.12 599.24 68.2C598.92 68.28 598.627 68.44 598.36 68.68C598.12 68.8933 597.933 69.16 597.8 69.48C597.667 69.8 597.6 70.1333 597.6 70.48H592.6L592.96 66.28L594 53.6H606.92V57.8H598.64L598.12 64.04C598.467 63.9867 598.813 63.9467 599.16 63.92C599.533 63.8933 599.893 63.88 600.24 63.88C601.013 63.88 601.787 63.9867 602.56 64.2C603.333 64.3867 604.027 64.72 604.64 65.2C605.28 65.6533 605.827 66.2133 606.28 66.88C606.733 67.52 607.08 68.2133 607.32 68.96C607.587 69.7067 607.76 70.4667 607.84 71.24C607.947 72.0133 608 72.8 608 73.6C608 74.3733 607.947 75.16 607.84 75.96C607.76 76.76 607.587 77.5333 607.32 78.28C607.053 79 606.693 79.6933 606.24 80.36C605.787 81.0267 605.227 81.5867 604.56 82.04C603.92 82.4933 603.213 82.8133 602.44 83C601.667 83.2133 600.893 83.32 600.12 83.32Z" fill="black"/>
<rect x="250" y="116" width="100" height="56" rx="4" fill="#FFBE25"/>
<path d="M280 159.32C279.28 159.32 278.547 159.253 277.8 159.12C277.08 158.987 276.4 158.747 275.76 158.4C275.12 158.053 274.547 157.613 274.04 157.08C273.533 156.52 273.12 155.92 272.8 155.28C272.507 154.613 272.293 153.92 272.16 153.2C272.053 152.453 272 151.72 272 151V137.6C272 136.88 272.053 136.16 272.16 135.44C272.293 134.693 272.507 134 272.8 133.36C273.12 132.693 273.533 132.093 274.04 131.56C274.547 131 275.12 130.547 275.76 130.2C276.4 129.853 277.08 129.613 277.8 129.48C278.547 129.347 279.28 129.28 280 129.28C280.72 129.28 281.44 129.347 282.16 129.48C282.907 129.613 283.6 129.853 284.24 130.2C284.88 130.547 285.453 131 285.96 131.56C286.467 132.093 286.867 132.693 287.16 133.36C287.48 134 287.693 134.693 287.8 135.44C287.933 136.16 288 136.88 288 137.6V151C288 151.72 287.933 152.453 287.8 153.2C287.693 153.92 287.48 154.613 287.16 155.28C286.867 155.92 286.467 156.52 285.96 157.08C285.453 157.613 284.88 158.053 284.24 158.4C283.6 158.747 282.907 158.987 282.16 159.12C281.44 159.253 280.72 159.32 280 159.32ZM280 155.12C280.48 155.12 280.933 155 281.36 154.76C281.813 154.52 282.16 154.2 282.4 153.8C282.667 153.373 282.84 152.92 282.92 152.44C283 151.96 283.04 151.48 283.04 151V137.6C283.04 137.12 283 136.64 282.92 136.16C282.84 135.68 282.667 135.24 282.4 134.84C282.16 134.413 281.813 134.08 281.36 133.84C280.933 133.6 280.48 133.48 280 133.48C279.52 133.48 279.053 133.6 278.6 133.84C278.173 134.08 277.827 134.413 277.56 134.84C277.32 135.24 277.16 135.68 277.08 136.16C277 136.64 276.96 137.12 276.96 137.6V151C276.96 151.48 277 151.96 277.08 152.44C277.16 152.92 277.32 153.373 277.56 153.8C277.827 154.2 278.173 154.52 278.6 154.76C279.053 155 279.52 155.12 280 155.12ZM280 147.68C279.787 147.68 279.587 147.64 279.4 147.56C279.213 147.48 279.053 147.36 278.92 147.2C278.813 147.013 278.733 146.827 278.68 146.64C278.653 146.427 278.64 146.213 278.64 146V142.6C278.64 142.387 278.653 142.187 278.68 142C278.733 141.787 278.813 141.6 278.92 141.44C279.053 141.253 279.213 141.12 279.4 141.04C279.587 140.96 279.787 140.92 280 140.92C280.213 140.92 280.413 140.96 280.6 141.04C280.787 141.12 280.933 141.253 281.04 141.44C281.173 141.6 281.253 141.787 281.28 142C281.333 142.187 281.36 142.387 281.36 142.6V146C281.36 146.213 281.333 146.427 281.28 146.64C281.253 146.827 281.173 147.013 281.04 147.2C280.933 147.36 280.787 147.48 280.6 147.56C280.413 147.64 280.213 147.68 280 147.68ZM300 159.32C299.28 159.32 298.547 159.253 297.8 159.12C297.08 158.987 296.4 158.747 295.76 158.4C295.12 158.053 294.547 157.613 294.04 157.08C293.533 156.52 293.12 155.92 292.8 155.28C292.507 154.613 292.293 153.92 292.16 153.2C292.053 152.453 292 151.72 292 151V137.6C292 136.88 292.053 136.16 292.16 135.44C292.293 134.693 292.507 134 292.8 133.36C293.12 132.693 293.533 132.093 294.04 131.56C294.547 131 295.12 130.547 295.76 130.2C296.4 129.853 297.08 129.613 297.8 129.48C298.547 129.347 299.28 129.28 300 129.28C300.72 129.28 301.44 129.347 302.16 129.48C302.907 129.613 303.6 129.853 304.24 130.2C304.88 130.547 305.453 131 305.96 131.56C306.467 132.093 306.867 132.693 307.16 133.36C307.48 134 307.693 134.693 307.8 135.44C307.933 136.16 308 136.88 308 137.6V151C308 151.72 307.933 152.453 307.8 153.2C307.693 153.92 307.48 154.613 307.16 155.28C306.867 155.92 306.467 156.52 305.96 157.08C305.453 157.613 304.88 158.053 304.24 158.4C303.6 158.747 302.907 158.987 302.16 159.12C301.44 159.253 300.72 159.32 300 159.32ZM300 155.12C300.48 155.12 300.933 155 301.36 154.76C301.813 154.52 302.16 154.2 302.4 153.8C302.667 153.373 302.84 152.92 302.92 152.44C303 151.96 303.04 151.48 303.04 151V137.6C303.04 137.12 303 136.64 302.92 136.16C302.84 135.68 302.667 135.24 302.4 134.84C302.16 134.413 301.813 134.08 301.36 133.84C300.933 133.6 300.48 133.48 300 133.48C299.52 133.48 299.053 133.6 298.6 133.84C298.173 134.08 297.827 134.413 297.56 134.84C297.32 135.24 297.16 135.68 297.08 136.16C297 136.64 296.96 137.12 296.96 137.6V151C296.96 151.48 297 151.96 297.08 152.44C297.16 152.92 297.32 153.373 297.56 153.8C297.827 154.2 298.173 154.52 298.6 154.76C299.053 155 299.52 155.12 300 155.12ZM300 147.68C299.787 147.68 299.587 147.64 299.4 147.56C299.213 147.48 299.053 147.36 298.92 147.2C298.813 147.013 298.733 146.827 298.68 146.64C298.653 146.427 298.64 146.213 298.64 146V142.6C298.64 142.387 298.653 142.187 298.68 142C298.733 141.787 298.813 141.6 298.92 141.44C299.053 141.253 299.213 141.12 299.4 141.04C299.587 140.96 299.787 140.92 300 140.92C300.213 140.92 300.413 140.96 300.6 141.04C300.787 141.12 300.933 141.253 301.04 141.44C301.173 141.6 301.253 141.787 301.28 142C301.333 142.187 301.36 142.387 301.36 142.6V146C301.36 146.213 301.333 146.427 301.28 146.64C301.253 146.827 301.173 147.013 301.04 147.2C300.933 147.36 300.787 147.48 300.6 147.56C300.413 147.64 300.213 147.68 300 147.68ZM320.12 159.32C319.4 159.32 318.68 159.253 317.96 159.12C317.267 159.013 316.6 158.813 315.96 158.52C315.347 158.2 314.773 157.8 314.24 157.32C313.707 156.813 313.267 156.253 312.92 155.64C312.573 155.027 312.32 154.373 312.16 153.68C312 152.96 311.92 152.253 311.92 151.56V151.32H316.88V151.44C316.88 151.893 316.933 152.347 317.04 152.8C317.173 153.253 317.387 153.667 317.68 154.04C317.973 154.387 318.333 154.653 318.76 154.84C319.213 155.027 319.667 155.12 320.12 155.12C320.627 155.12 321.107 155 321.56 154.76C322.013 154.52 322.373 154.2 322.64 153.8C322.907 153.373 323.093 152.92 323.2 152.44C323.307 151.933 323.36 151.427 323.36 150.92C323.36 150.493 323.32 150.067 323.24 149.64C323.16 149.187 323.027 148.76 322.84 148.36C322.653 147.96 322.4 147.6 322.08 147.28C321.787 146.933 321.44 146.667 321.04 146.48C320.64 146.293 320.213 146.173 319.76 146.12C319.333 146.067 318.907 146.04 318.48 146.04V141.84C318.853 141.84 319.24 141.813 319.64 141.76C320.04 141.707 320.413 141.6 320.76 141.44C321.107 141.253 321.413 141.013 321.68 140.72C321.947 140.4 322.16 140.053 322.32 139.68C322.48 139.307 322.587 138.933 322.64 138.56C322.693 138.16 322.72 137.76 322.72 137.36C322.72 136.907 322.68 136.467 322.6 136.04C322.547 135.613 322.413 135.213 322.2 134.84C322.013 134.44 321.72 134.12 321.32 133.88C320.947 133.613 320.547 133.48 320.12 133.48C319.693 133.48 319.293 133.6 318.92 133.84C318.547 134.053 318.253 134.347 318.04 134.72C317.853 135.067 317.72 135.453 317.64 135.88C317.56 136.307 317.52 136.72 317.52 137.12V137.28H312.56V136.96C312.56 136.293 312.627 135.627 312.76 134.96C312.92 134.293 313.147 133.653 313.44 133.04C313.733 132.427 314.107 131.88 314.56 131.4C315.04 130.893 315.573 130.48 316.16 130.16C316.773 129.84 317.413 129.613 318.08 129.48C318.773 129.347 319.453 129.28 320.12 129.28C320.813 129.28 321.493 129.347 322.16 129.48C322.853 129.613 323.493 129.853 324.08 130.2C324.693 130.547 325.227 130.987 325.68 131.52C326.16 132.027 326.547 132.587 326.84 133.2C327.133 133.813 327.347 134.467 327.48 135.16C327.613 135.827 327.68 136.507 327.68 137.2C327.68 137.867 327.6 138.533 327.44 139.2C327.307 139.84 327.093 140.453 326.8 141.04C326.507 141.627 326.12 142.16 325.64 142.64C325.187 143.12 324.68 143.533 324.12 143.88C324.76 144.2 325.347 144.613 325.88 145.12C326.44 145.627 326.893 146.2 327.24 146.84C327.613 147.48 327.88 148.16 328.04 148.88C328.227 149.6 328.32 150.333 328.32 151.08C328.32 151.8 328.24 152.52 328.08 153.24C327.92 153.96 327.68 154.653 327.36 155.32C327.04 155.96 326.613 156.547 326.08 157.08C325.573 157.613 325 158.053 324.36 158.4C323.72 158.747 323.027 158.987 322.28 159.12C321.56 159.253 320.84 159.32 320.12 159.32Z" fill="black"/>
<rect x="810" y="116" width="100" height="56" rx="4" fill="#FFBE25"/>
<path d="M840 159.32C839.28 159.32 838.547 159.253 837.8 159.12C837.08 158.987 836.4 158.747 835.76 158.4C835.12 158.053 834.547 157.613 834.04 157.08C833.533 156.52 833.12 155.92 832.8 155.28C832.507 154.613 832.293 153.92 832.16 153.2C832.053 152.453 832 151.72 832 151V137.6C832 136.88 832.053 136.16 832.16 135.44C832.293 134.693 832.507 134 832.8 133.36C833.12 132.693 833.533 132.093 834.04 131.56C834.547 131 835.12 130.547 835.76 130.2C836.4 129.853 837.08 129.613 837.8 129.48C838.547 129.347 839.28 129.28 840 129.28C840.72 129.28 841.44 129.347 842.16 129.48C842.907 129.613 843.6 129.853 844.24 130.2C844.88 130.547 845.453 131 845.96 131.56C846.467 132.093 846.867 132.693 847.16 133.36C847.48 134 847.693 134.693 847.8 135.44C847.933 136.16 848 136.88 848 137.6V151C848 151.72 847.933 152.453 847.8 153.2C847.693 153.92 847.48 154.613 847.16 155.28C846.867 155.92 846.467 156.52 845.96 157.08C845.453 157.613 844.88 158.053 844.24 158.4C843.6 158.747 842.907 158.987 842.16 159.12C841.44 159.253 840.72 159.32 840 159.32ZM840 155.12C840.48 155.12 840.933 155 841.36 154.76C841.813 154.52 842.16 154.2 842.4 153.8C842.667 153.373 842.84 152.92 842.92 152.44C843 151.96 843.04 151.48 843.04 151V137.6C843.04 137.12 843 136.64 842.92 136.16C842.84 135.68 842.667 135.24 842.4 134.84C842.16 134.413 841.813 134.08 841.36 133.84C840.933 133.6 840.48 133.48 840 133.48C839.52 133.48 839.053 133.6 838.6 133.84C838.173 134.08 837.827 134.413 837.56 134.84C837.32 135.24 837.16 135.68 837.08 136.16C837 136.64 836.96 137.12 836.96 137.6V151C836.96 151.48 837 151.96 837.08 152.44C837.16 152.92 837.32 153.373 837.56 153.8C837.827 154.2 838.173 154.52 838.6 154.76C839.053 155 839.52 155.12 840 155.12ZM840 147.68C839.787 147.68 839.587 147.64 839.4 147.56C839.213 147.48 839.053 147.36 838.92 147.2C838.813 147.013 838.733 146.827 838.68 146.64C838.653 146.427 838.64 146.213 838.64 146V142.6C838.64 142.387 838.653 142.187 838.68 142C838.733 141.787 838.813 141.6 838.92 141.44C839.053 141.253 839.213 141.12 839.4 141.04C839.587 140.96 839.787 140.92 840 140.92C840.213 140.92 840.413 140.96 840.6 141.04C840.787 141.12 840.933 141.253 841.04 141.44C841.173 141.6 841.253 141.787 841.28 142C841.333 142.187 841.36 142.387 841.36 142.6V146C841.36 146.213 841.333 146.427 841.28 146.64C841.253 146.827 841.173 147.013 841.04 147.2C840.933 147.36 840.787 147.48 840.6 147.56C840.413 147.64 840.213 147.68 840 147.68ZM860 159.32C859.28 159.32 858.547 159.253 857.8 159.12C857.08 158.987 856.4 158.747 855.76 158.4C855.12 158.053 854.547 157.613 854.04 157.08C853.533 156.52 853.12 155.92 852.8 155.28C852.507 154.613 852.293 153.92 852.16 153.2C852.053 152.453 852 151.72 852 151V137.6C852 136.88 852.053 136.16 852.16 135.44C852.293 134.693 852.507 134 852.8 133.36C853.12 132.693 853.533 132.093 854.04 131.56C854.547 131 855.12 130.547 855.76 130.2C856.4 129.853 857.08 129.613 857.8 129.48C858.547 129.347 859.28 129.28 860 129.28C860.72 129.28 861.44 129.347 862.16 129.48C862.907 129.613 863.6 129.853 864.24 130.2C864.88 130.547 865.453 131 865.96 131.56C866.467 132.093 866.867 132.693 867.16 133.36C867.48 134 867.693 134.693 867.8 135.44C867.933 136.16 868 136.88 868 137.6V151C868 151.72 867.933 152.453 867.8 153.2C867.693 153.92 867.48 154.613 867.16 155.28C866.867 155.92 866.467 156.52 865.96 157.08C865.453 157.613 864.88 158.053 864.24 158.4C863.6 158.747 862.907 158.987 862.16 159.12C861.44 159.253 860.72 159.32 860 159.32ZM860 155.12C860.48 155.12 860.933 155 861.36 154.76C861.813 154.52 862.16 154.2 862.4 153.8C862.667 153.373 862.84 152.92 862.92 152.44C863 151.96 863.04 151.48 863.04 151V137.6C863.04 137.12 863 136.64 862.92 136.16C862.84 135.68 862.667 135.24 862.4 134.84C862.16 134.413 861.813 134.08 861.36 133.84C860.933 133.6 860.48 133.48 860 133.48C859.52 133.48 859.053 133.6 858.6 133.84C858.173 134.08 857.827 134.413 857.56 134.84C857.32 135.24 857.16 135.68 857.08 136.16C857 136.64 856.96 137.12 856.96 137.6V151C856.96 151.48 857 151.96 857.08 152.44C857.16 152.92 857.32 153.373 857.56 153.8C857.827 154.2 858.173 154.52 858.6 154.76C859.053 155 859.52 155.12 860 155.12ZM860 147.68C859.787 147.68 859.587 147.64 859.4 147.56C859.213 147.48 859.053 147.36 858.92 147.2C858.813 147.013 858.733 146.827 858.68 146.64C858.653 146.427 858.64 146.213 858.64 146V142.6C858.64 142.387 858.653 142.187 858.68 142C858.733 141.787 858.813 141.6 858.92 141.44C859.053 141.253 859.213 141.12 859.4 141.04C859.587 140.96 859.787 140.92 860 140.92C860.213 140.92 860.413 140.96 860.6 141.04C860.787 141.12 860.933 141.253 861.04 141.44C861.173 141.6 861.253 141.787 861.28 142C861.333 142.187 861.36 142.387 861.36 142.6V146C861.36 146.213 861.333 146.427 861.28 146.64C861.253 146.827 861.173 147.013 861.04 147.2C860.933 147.36 860.787 147.48 860.6 147.56C860.413 147.64 860.213 147.68 860 147.68ZM875.24 159L882.56 133.8H876V137.08H872.32V129.6H887.68V133.8L880.32 159H875.24Z" fill="black"/>
<rect x="110" y="192" width="100" height="56" rx="4" fill="#FFBE25"/>
<path d="M140 235.32C139.28 235.32 138.547 235.253 137.8 235.12C137.08 234.987 136.4 234.747 135.76 234.4C135.12 234.053 134.547 233.613 134.04 233.08C133.533 232.52 133.12 231.92 132.8 231.28C132.507 230.613 132.293 229.92 132.16 229.2C132.053 228.453 132 227.72 132 227V213.6C132 212.88 132.053 212.16 132.16 211.44C132.293 210.693 132.507 210 132.8 209.36C133.12 208.693 133.533 208.093 134.04 207.56C134.547 207 135.12 206.547 135.76 206.2C136.4 205.853 137.08 205.613 137.8 205.48C138.547 205.347 139.28 205.28 140 205.28C140.72 205.28 141.44 205.347 142.16 205.48C142.907 205.613 143.6 205.853 144.24 206.2C144.88 206.547 145.453 207 145.96 207.56C146.467 208.093 146.867 208.693 147.16 209.36C147.48 210 147.693 210.693 147.8 211.44C147.933 212.16 148 212.88 148 213.6V227C148 227.72 147.933 228.453 147.8 229.2C147.693 229.92 147.48 230.613 147.16 231.28C146.867 231.92 146.467 232.52 145.96 233.08C145.453 233.613 144.88 234.053 144.24 234.4C143.6 234.747 142.907 234.987 142.16 235.12C141.44 235.253 140.72 235.32 140 235.32ZM140 231.12C140.48 231.12 140.933 231 141.36 230.76C141.813 230.52 142.16 230.2 142.4 229.8C142.667 229.373 142.84 228.92 142.92 228.44C143 227.96 143.04 227.48 143.04 227V213.6C143.04 213.12 143 212.64 142.92 212.16C142.84 211.68 142.667 211.24 142.4 210.84C142.16 210.413 141.813 210.08 141.36 209.84C140.933 209.6 140.48 209.48 140 209.48C139.52 209.48 139.053 209.6 138.6 209.84C138.173 210.08 137.827 210.413 137.56 210.84C137.32 211.24 137.16 211.68 137.08 212.16C137 212.64 136.96 213.12 136.96 213.6V227C136.96 227.48 137 227.96 137.08 228.44C137.16 228.92 137.32 229.373 137.56 229.8C137.827 230.2 138.173 230.52 138.6 230.76C139.053 231 139.52 231.12 140 231.12ZM140 223.68C139.787 223.68 139.587 223.64 139.4 223.56C139.213 223.48 139.053 223.36 138.92 223.2C138.813 223.013 138.733 222.827 138.68 222.64C138.653 222.427 138.64 222.213 138.64 222V218.6C138.64 218.387 138.653 218.187 138.68 218C138.733 217.787 138.813 217.6 138.92 217.44C139.053 217.253 139.213 217.12 139.4 217.04C139.587 216.96 139.787 216.92 140 216.92C140.213 216.92 140.413 216.96 140.6 217.04C140.787 217.12 140.933 217.253 141.04 217.44C141.173 217.6 141.253 217.787 141.28 218C141.333 218.187 141.36 218.387 141.36 218.6V222C141.36 222.213 141.333 222.427 141.28 222.64C141.253 222.827 141.173 223.013 141.04 223.2C140.933 223.36 140.787 223.48 140.6 223.56C140.413 223.64 140.213 223.68 140 223.68ZM160 235.32C159.28 235.32 158.547 235.253 157.8 235.12C157.08 234.987 156.4 234.747 155.76 234.4C155.12 234.053 154.547 233.613 154.04 233.08C153.533 232.52 153.12 231.92 152.8 231.28C152.507 230.613 152.293 229.92 152.16 229.2C152.053 228.453 152 227.72 152 227V213.6C152 212.88 152.053 212.16 152.16 211.44C152.293 210.693 152.507 210 152.8 209.36C153.12 208.693 153.533 208.093 154.04 207.56C154.547 207 155.12 206.547 155.76 206.2C156.4 205.853 157.08 205.613 157.8 205.48C158.547 205.347 159.28 205.28 160 205.28C160.72 205.28 161.44 205.347 162.16 205.48C162.907 205.613 163.6 205.853 164.24 206.2C164.88 206.547 165.453 207 165.96 207.56C166.467 208.093 166.867 208.693 167.16 209.36C167.48 210 167.693 210.693 167.8 211.44C167.933 212.16 168 212.88 168 213.6V227C168 227.72 167.933 228.453 167.8 229.2C167.693 229.92 167.48 230.613 167.16 231.28C166.867 231.92 166.467 232.52 165.96 233.08C165.453 233.613 164.88 234.053 164.24 234.4C163.6 234.747 162.907 234.987 162.16 235.12C161.44 235.253 160.72 235.32 160 235.32ZM160 231.12C160.48 231.12 160.933 231 161.36 230.76C161.813 230.52 162.16 230.2 162.4 229.8C162.667 229.373 162.84 228.92 162.92 228.44C163 227.96 163.04 227.48 163.04 227V213.6C163.04 213.12 163 212.64 162.92 212.16C162.84 211.68 162.667 211.24 162.4 210.84C162.16 210.413 161.813 210.08 161.36 209.84C160.933 209.6 160.48 209.48 160 209.48C159.52 209.48 159.053 209.6 158.6 209.84C158.173 210.08 157.827 210.413 157.56 210.84C157.32 211.24 157.16 211.68 157.08 212.16C157 212.64 156.96 213.12 156.96 213.6V227C156.96 227.48 157 227.96 157.08 228.44C157.16 228.92 157.32 229.373 157.56 229.8C157.827 230.2 158.173 230.52 158.6 230.76C159.053 231 159.52 231.12 160 231.12ZM160 223.68C159.787 223.68 159.587 223.64 159.4 223.56C159.213 223.48 159.053 223.36 158.92 223.2C158.813 223.013 158.733 222.827 158.68 222.64C158.653 222.427 158.64 222.213 158.64 222V218.6C158.64 218.387 158.653 218.187 158.68 218C158.733 217.787 158.813 217.6 158.92 217.44C159.053 217.253 159.213 217.12 159.4 217.04C159.587 216.96 159.787 216.92 160 216.92C160.213 216.92 160.413 216.96 160.6 217.04C160.787 217.12 160.933 217.253 161.04 217.44C161.173 217.6 161.253 217.787 161.28 218C161.333 218.187 161.36 218.387 161.36 218.6V222C161.36 222.213 161.333 222.427 161.28 222.64C161.253 222.827 161.173 223.013 161.04 223.2C160.933 223.36 160.787 223.48 160.6 223.56C160.413 223.64 160.213 223.68 160 223.68ZM172.32 235V230.8L179.96 220.28C180.307 219.8 180.653 219.32 181 218.84C181.373 218.333 181.693 217.827 181.96 217.32C182.253 216.787 182.48 216.227 182.64 215.64C182.8 215.053 182.88 214.453 182.88 213.84C182.88 213.52 182.867 213.2 182.84 212.88C182.813 212.533 182.76 212.213 182.68 211.92C182.6 211.6 182.48 211.293 182.32 211C182.187 210.707 182 210.44 181.76 210.2C181.547 209.96 181.28 209.787 180.96 209.68C180.667 209.547 180.36 209.48 180.04 209.48C179.613 209.48 179.2 209.587 178.8 209.8C178.4 210.013 178.08 210.307 177.84 210.68C177.6 211.027 177.427 211.413 177.32 211.84C177.24 212.267 177.2 212.707 177.2 213.16V213.28H172.24V213C172.24 212.307 172.307 211.627 172.44 210.96C172.6 210.267 172.84 209.613 173.16 209C173.48 208.387 173.88 207.84 174.36 207.36C174.867 206.853 175.427 206.44 176.04 206.12C176.653 205.8 177.293 205.587 177.96 205.48C178.653 205.347 179.347 205.28 180.04 205.28C180.76 205.28 181.48 205.36 182.2 205.52C182.947 205.653 183.627 205.907 184.24 206.28C184.88 206.653 185.44 207.12 185.92 207.68C186.4 208.24 186.787 208.867 187.08 209.56C187.373 210.227 187.573 210.933 187.68 211.68C187.787 212.4 187.84 213.12 187.84 213.84C187.84 214.667 187.733 215.493 187.52 216.32C187.333 217.12 187.053 217.893 186.68 218.64C186.307 219.36 185.88 220.067 185.4 220.76C184.92 221.427 184.44 222.093 183.96 222.76L178.12 230.8H187.68V235H172.32Z" fill="black"/>
<rect x="670" y="192" width="100" height="56" rx="4" fill="#FFBE25"/>
<path d="M700 235.32C699.28 235.32 698.547 235.253 697.8 235.12C697.08 234.987 696.4 234.747 695.76 234.4C695.12 234.053 694.547 233.613 694.04 233.08C693.533 232.52 693.12 231.92 692.8 231.28C692.507 230.613 692.293 229.92 692.16 229.2C692.053 228.453 692 227.72 692 227V213.6C692 212.88 692.053 212.16 692.16 211.44C692.293 210.693 692.507 210 692.8 209.36C693.12 208.693 693.533 208.093 694.04 207.56C694.547 207 695.12 206.547 695.76 206.2C696.4 205.853 697.08 205.613 697.8 205.48C698.547 205.347 699.28 205.28 700 205.28C700.72 205.28 701.44 205.347 702.16 205.48C702.907 205.613 703.6 205.853 704.24 206.2C704.88 206.547 705.453 207 705.96 207.56C706.467 208.093 706.867 208.693 707.16 209.36C707.48 210 707.693 210.693 707.8 211.44C707.933 212.16 708 212.88 708 213.6V227C708 227.72 707.933 228.453 707.8 229.2C707.693 229.92 707.48 230.613 707.16 231.28C706.867 231.92 706.467 232.52 705.96 233.08C705.453 233.613 704.88 234.053 704.24 234.4C703.6 234.747 702.907 234.987 702.16 235.12C701.44 235.253 700.72 235.32 700 235.32ZM700 231.12C700.48 231.12 700.933 231 701.36 230.76C701.813 230.52 702.16 230.2 702.4 229.8C702.667 229.373 702.84 228.92 702.92 228.44C703 227.96 703.04 227.48 703.04 227V213.6C703.04 213.12 703 212.64 702.92 212.16C702.84 211.68 702.667 211.24 702.4 210.84C702.16 210.413 701.813 210.08 701.36 209.84C700.933 209.6 700.48 209.48 700 209.48C699.52 209.48 699.053 209.6 698.6 209.84C698.173 210.08 697.827 210.413 697.56 210.84C697.32 211.24 697.16 211.68 697.08 212.16C697 212.64 696.96 213.12 696.96 213.6V227C696.96 227.48 697 227.96 697.08 228.44C697.16 228.92 697.32 229.373 697.56 229.8C697.827 230.2 698.173 230.52 698.6 230.76C699.053 231 699.52 231.12 700 231.12ZM700 223.68C699.787 223.68 699.587 223.64 699.4 223.56C699.213 223.48 699.053 223.36 698.92 223.2C698.813 223.013 698.733 222.827 698.68 222.64C698.653 222.427 698.64 222.213 698.64 222V218.6C698.64 218.387 698.653 218.187 698.68 218C698.733 217.787 698.813 217.6 698.92 217.44C699.053 217.253 699.213 217.12 699.4 217.04C699.587 216.96 699.787 216.92 700 216.92C700.213 216.92 700.413 216.96 700.6 217.04C700.787 217.12 700.933 217.253 701.04 217.44C701.173 217.6 701.253 217.787 701.28 218C701.333 218.187 701.36 218.387 701.36 218.6V222C701.36 222.213 701.333 222.427 701.28 222.64C701.253 222.827 701.173 223.013 701.04 223.2C700.933 223.36 700.787 223.48 700.6 223.56C700.413 223.64 700.213 223.68 700 223.68ZM720 235.32C719.28 235.32 718.547 235.253 717.8 235.12C717.08 234.987 716.4 234.747 715.76 234.4C715.12 234.053 714.547 233.613 714.04 233.08C713.533 232.52 713.12 231.92 712.8 231.28C712.507 230.613 712.293 229.92 712.16 229.2C712.053 228.453 712 227.72 712 227V213.6C712 212.88 712.053 212.16 712.16 211.44C712.293 210.693 712.507 210 712.8 209.36C713.12 208.693 713.533 208.093 714.04 207.56C714.547 207 715.12 206.547 715.76 206.2C716.4 205.853 717.08 205.613 717.8 205.48C718.547 205.347 719.28 205.28 720 205.28C720.72 205.28 721.44 205.347 722.16 205.48C722.907 205.613 723.6 205.853 724.24 206.2C724.88 206.547 725.453 207 725.96 207.56C726.467 208.093 726.867 208.693 727.16 209.36C727.48 210 727.693 210.693 727.8 211.44C727.933 212.16 728 212.88 728 213.6V227C728 227.72 727.933 228.453 727.8 229.2C727.693 229.92 727.48 230.613 727.16 231.28C726.867 231.92 726.467 232.52 725.96 233.08C725.453 233.613 724.88 234.053 724.24 234.4C723.6 234.747 722.907 234.987 722.16 235.12C721.44 235.253 720.72 235.32 720 235.32ZM720 231.12C720.48 231.12 720.933 231 721.36 230.76C721.813 230.52 722.16 230.2 722.4 229.8C722.667 229.373 722.84 228.92 722.92 228.44C723 227.96 723.04 227.48 723.04 227V213.6C723.04 213.12 723 212.64 722.92 212.16C722.84 211.68 722.667 211.24 722.4 210.84C722.16 210.413 721.813 210.08 721.36 209.84C720.933 209.6 720.48 209.48 720 209.48C719.52 209.48 719.053 209.6 718.6 209.84C718.173 210.08 717.827 210.413 717.56 210.84C717.32 211.24 717.16 211.68 717.08 212.16C717 212.64 716.96 213.12 716.96 213.6V227C716.96 227.48 717 227.96 717.08 228.44C717.16 228.92 717.32 229.373 717.56 229.8C717.827 230.2 718.173 230.52 718.6 230.76C719.053 231 719.52 231.12 720 231.12ZM720 223.68C719.787 223.68 719.587 223.64 719.4 223.56C719.213 223.48 719.053 223.36 718.92 223.2C718.813 223.013 718.733 222.827 718.68 222.64C718.653 222.427 718.64 222.213 718.64 222V218.6C718.64 218.387 718.653 218.187 718.68 218C718.733 217.787 718.813 217.6 718.92 217.44C719.053 217.253 719.213 217.12 719.4 217.04C719.587 216.96 719.787 216.92 720 216.92C720.213 216.92 720.413 216.96 720.6 217.04C720.787 217.12 720.933 217.253 721.04 217.44C721.173 217.6 721.253 217.787 721.28 218C721.333 218.187 721.36 218.387 721.36 218.6V222C721.36 222.213 721.333 222.427 721.28 222.64C721.253 222.827 721.173 223.013 721.04 223.2C720.933 223.36 720.787 223.48 720.6 223.56C720.413 223.64 720.213 223.68 720 223.68ZM740 235.32C739.227 235.32 738.453 235.227 737.68 235.04C736.907 234.853 736.187 234.547 735.52 234.12C734.88 233.693 734.32 233.16 733.84 232.52C733.387 231.88 733.013 231.2 732.72 230.48C732.453 229.733 732.267 228.973 732.16 228.2C732.053 227.427 732 226.653 732 225.88C732 224.413 732.08 222.96 732.24 221.52C732.4 220.08 732.64 218.667 732.96 217.28C733.28 215.867 733.747 214.507 734.36 213.2C735 211.867 735.8 210.667 736.76 209.6C737.747 208.507 738.867 207.6 740.12 206.88C741.4 206.133 742.733 205.6 744.12 205.28L745.36 209.36C744.32 209.653 743.333 210.12 742.4 210.76C741.493 211.4 740.707 212.16 740.04 213.04C739.4 213.92 738.88 214.88 738.48 215.92C738.107 216.933 737.813 217.973 737.6 219.04C737.84 218.64 738.107 218.28 738.4 217.96C738.72 217.613 739.067 217.32 739.44 217.08C739.84 216.84 740.267 216.667 740.72 216.56C741.173 216.453 741.627 216.4 742.08 216.4C742.773 216.4 743.44 216.547 744.08 216.84C744.747 217.107 745.307 217.507 745.76 218.04C746.24 218.547 746.627 219.12 746.92 219.76C747.213 220.4 747.44 221.053 747.6 221.72C747.76 222.387 747.867 223.08 747.92 223.8C747.973 224.493 748 225.187 748 225.88C748 226.653 747.947 227.427 747.84 228.2C747.733 228.973 747.533 229.733 747.24 230.48C746.973 231.2 746.6 231.88 746.12 232.52C745.667 233.16 745.107 233.693 744.44 234.12C743.8 234.547 743.093 234.853 742.32 235.04C741.547 235.227 740.773 235.32 740 235.32ZM740 231.12C740.373 231.12 740.733 231.04 741.08 230.88C741.427 230.693 741.72 230.453 741.96 230.16C742.2 229.867 742.387 229.547 742.52 229.2C742.653 228.853 742.76 228.493 742.84 228.12C742.92 227.747 742.973 227.373 743 227C743.027 226.627 743.04 226.253 743.04 225.88C743.04 225.507 743.027 225.133 743 224.76C742.973 224.36 742.92 223.987 742.84 223.64C742.76 223.267 742.653 222.907 742.52 222.56C742.387 222.187 742.2 221.853 741.96 221.56C741.72 221.267 741.427 221.04 741.08 220.88C740.733 220.693 740.373 220.6 740 220.6C739.547 220.6 739.107 220.733 738.68 221C738.28 221.267 737.96 221.6 737.72 222C737.507 222.4 737.333 222.827 737.2 223.28C737.093 223.733 737.027 224.2 737 224.68C736.973 224.867 736.96 225.067 736.96 225.28C736.96 225.467 736.96 225.667 736.96 225.88C736.96 226.253 736.973 226.627 737 227C737.027 227.373 737.08 227.747 737.16 228.12C737.24 228.493 737.347 228.853 737.48 229.2C737.613 229.547 737.8 229.867 738.04 230.16C738.28 230.453 738.573 230.693 738.92 230.88C739.267 231.04 739.627 231.12 740 231.12Z" fill="black"/>
<rect x="40" y="268" width="100" height="56" rx="4" fill="#FFBE25"/>
<path d="M70 311.32C69.28 311.32 68.5467 311.253 67.8 311.12C67.08 310.987 66.4 310.747 65.76 310.4C65.12 310.053 64.5467 309.613 64.04 309.08C63.5333 308.52 63.12 307.92 62.8 307.28C62.5067 306.613 62.2933 305.92 62.16 305.2C62.0533 304.453 62 303.72 62 303V289.6C62 288.88 62.0533 288.16 62.16 287.44C62.2933 286.693 62.5067 286 62.8 285.36C63.12 284.693 63.5333 284.093 64.04 283.56C64.5467 283 65.12 282.547 65.76 282.2C66.4 281.853 67.08 281.613 67.8 281.48C68.5467 281.347 69.28 281.28 70 281.28C70.72 281.28 71.44 281.347 72.16 281.48C72.9067 281.613 73.6 281.853 74.24 282.2C74.88 282.547 75.4533 283 75.96 283.56C76.4667 284.093 76.8667 284.693 77.16 285.36C77.48 286 77.6933 286.693 77.8 287.44C77.9333 288.16 78 288.88 78 289.6V303C78 303.72 77.9333 304.453 77.8 305.2C77.6933 305.92 77.48 306.613 77.16 307.28C76.8667 307.92 76.4667 308.52 75.96 309.08C75.4533 309.613 74.88 310.053 74.24 310.4C73.6 310.747 72.9067 310.987 72.16 311.12C71.44 311.253 70.72 311.32 70 311.32ZM70 307.12C70.48 307.12 70.9333 307 71.36 306.76C71.8133 306.52 72.16 306.2 72.4 305.8C72.6667 305.373 72.84 304.92 72.92 304.44C73 303.96 73.04 303.48 73.04 303V289.6C73.04 289.12 73 288.64 72.92 288.16C72.84 287.68 72.6667 287.24 72.4 286.84C72.16 286.413 71.8133 286.08 71.36 285.84C70.9333 285.6 70.48 285.48 70 285.48C69.52 285.48 69.0533 285.6 68.6 285.84C68.1733 286.08 67.8267 286.413 67.56 286.84C67.32 287.24 67.16 287.68 67.08 288.16C67 288.64 66.96 289.12 66.96 289.6V303C66.96 303.48 67 303.96 67.08 304.44C67.16 304.92 67.32 305.373 67.56 305.8C67.8267 306.2 68.1733 306.52 68.6 306.76C69.0533 307 69.52 307.12 70 307.12ZM70 299.68C69.7867 299.68 69.5867 299.64 69.4 299.56C69.2133 299.48 69.0533 299.36 68.92 299.2C68.8133 299.013 68.7333 298.827 68.68 298.64C68.6533 298.427 68.64 298.213 68.64 298V294.6C68.64 294.387 68.6533 294.187 68.68 294C68.7333 293.787 68.8133 293.6 68.92 293.44C69.0533 293.253 69.2133 293.12 69.4 293.04C69.5867 292.96 69.7867 292.92 70 292.92C70.2133 292.92 70.4133 292.96 70.6 293.04C70.7867 293.12 70.9333 293.253 71.04 293.44C71.1733 293.6 71.2533 293.787 71.28 294C71.3333 294.187 71.36 294.387 71.36 294.6V298C71.36 298.213 71.3333 298.427 71.28 298.64C71.2533 298.827 71.1733 299.013 71.04 299.2C70.9333 299.36 70.7867 299.48 70.6 299.56C70.4133 299.64 70.2133 299.68 70 299.68ZM90 311.32C89.28 311.32 88.5467 311.253 87.8 311.12C87.08 310.987 86.4 310.747 85.76 310.4C85.12 310.053 84.5467 309.613 84.04 309.08C83.5333 308.52 83.12 307.92 82.8 307.28C82.5067 306.613 82.2933 305.92 82.16 305.2C82.0533 304.453 82 303.72 82 303V289.6C82 288.88 82.0533 288.16 82.16 287.44C82.2933 286.693 82.5067 286 82.8 285.36C83.12 284.693 83.5333 284.093 84.04 283.56C84.5467 283 85.12 282.547 85.76 282.2C86.4 281.853 87.08 281.613 87.8 281.48C88.5467 281.347 89.28 281.28 90 281.28C90.72 281.28 91.44 281.347 92.16 281.48C92.9067 281.613 93.6 281.853 94.24 282.2C94.88 282.547 95.4533 283 95.96 283.56C96.4667 284.093 96.8667 284.693 97.16 285.36C97.48 286 97.6933 286.693 97.8 287.44C97.9333 288.16 98 288.88 98 289.6V303C98 303.72 97.9333 304.453 97.8 305.2C97.6933 305.92 97.48 306.613 97.16 307.28C96.8667 307.92 96.4667 308.52 95.96 309.08C95.4533 309.613 94.88 310.053 94.24 310.4C93.6 310.747 92.9067 310.987 92.16 311.12C91.44 311.253 90.72 311.32 90 311.32ZM90 307.12C90.48 307.12 90.9333 307 91.36 306.76C91.8133 306.52 92.16 306.2 92.4 305.8C92.6667 305.373 92.84 304.92 92.92 304.44C93 303.96 93.04 303.48 93.04 303V289.6C93.04 289.12 93 288.64 92.92 288.16C92.84 287.68 92.6667 287.24 92.4 286.84C92.16 286.413 91.8133 286.08 91.36 285.84C90.9333 285.6 90.48 285.48 90 285.48C89.52 285.48 89.0533 285.6 88.6 285.84C88.1733 286.08 87.8267 286.413 87.56 286.84C87.32 287.24 87.16 287.68 87.08 288.16C87 288.64 86.96 289.12 86.96 289.6V303C86.96 303.48 87 303.96 87.08 304.44C87.16 304.92 87.32 305.373 87.56 305.8C87.8267 306.2 88.1733 306.52 88.6 306.76C89.0533 307 89.52 307.12 90 307.12ZM90 299.68C89.7867 299.68 89.5867 299.64 89.4 299.56C89.2133 299.48 89.0533 299.36 88.92 299.2C88.8133 299.013 88.7333 298.827 88.68 298.64C88.6533 298.427 88.64 298.213 88.64 298V294.6C88.64 294.387 88.6533 294.187 88.68 294C88.7333 293.787 88.8133 293.6 88.92 293.44C89.0533 293.253 89.2133 293.12 89.4 293.04C89.5867 292.96 89.7867 292.92 90 292.92C90.2133 292.92 90.4133 292.96 90.6 293.04C90.7867 293.12 90.9333 293.253 91.04 293.44C91.1733 293.6 91.2533 293.787 91.28 294C91.3333 294.187 91.36 294.387 91.36 294.6V298C91.36 298.213 91.3333 298.427 91.28 298.64C91.2533 298.827 91.1733 299.013 91.04 299.2C90.9333 299.36 90.7867 299.48 90.6 299.56C90.4133 299.64 90.2133 299.68 90 299.68ZM103 311V306.8H107.84V286.28L103.72 290.16L101.2 287.88L107.84 281.6H112.76V306.8H117V311H103Z" fill="black"/>
<rect x="600" y="268" width="100" height="56" rx="4" fill="#FFBE25"/>
<path d="M630 311.32C629.28 311.32 628.547 311.253 627.8 311.12C627.08 310.987 626.4 310.747 625.76 310.4C625.12 310.053 624.547 309.613 624.04 309.08C623.533 308.52 623.12 307.92 622.8 307.28C622.507 306.613 622.293 305.92 622.16 305.2C622.053 304.453 622 303.72 622 303V289.6C622 288.88 622.053 288.16 622.16 287.44C622.293 286.693 622.507 286 622.8 285.36C623.12 284.693 623.533 284.093 624.04 283.56C624.547 283 625.12 282.547 625.76 282.2C626.4 281.853 627.08 281.613 627.8 281.48C628.547 281.347 629.28 281.28 630 281.28C630.72 281.28 631.44 281.347 632.16 281.48C632.907 281.613 633.6 281.853 634.24 282.2C634.88 282.547 635.453 283 635.96 283.56C636.467 284.093 636.867 284.693 637.16 285.36C637.48 286 637.693 286.693 637.8 287.44C637.933 288.16 638 288.88 638 289.6V303C638 303.72 637.933 304.453 637.8 305.2C637.693 305.92 637.48 306.613 637.16 307.28C636.867 307.92 636.467 308.52 635.96 309.08C635.453 309.613 634.88 310.053 634.24 310.4C633.6 310.747 632.907 310.987 632.16 311.12C631.44 311.253 630.72 311.32 630 311.32ZM630 307.12C630.48 307.12 630.933 307 631.36 306.76C631.813 306.52 632.16 306.2 632.4 305.8C632.667 305.373 632.84 304.92 632.92 304.44C633 303.96 633.04 303.48 633.04 303V289.6C633.04 289.12 633 288.64 632.92 288.16C632.84 287.68 632.667 287.24 632.4 286.84C632.16 286.413 631.813 286.08 631.36 285.84C630.933 285.6 630.48 285.48 630 285.48C629.52 285.48 629.053 285.6 628.6 285.84C628.173 286.08 627.827 286.413 627.56 286.84C627.32 287.24 627.16 287.68 627.08 288.16C627 288.64 626.96 289.12 626.96 289.6V303C626.96 303.48 627 303.96 627.08 304.44C627.16 304.92 627.32 305.373 627.56 305.8C627.827 306.2 628.173 306.52 628.6 306.76C629.053 307 629.52 307.12 630 307.12ZM630 299.68C629.787 299.68 629.587 299.64 629.4 299.56C629.213 299.48 629.053 299.36 628.92 299.2C628.813 299.013 628.733 298.827 628.68 298.64C628.653 298.427 628.64 298.213 628.64 298V294.6C628.64 294.387 628.653 294.187 628.68 294C628.733 293.787 628.813 293.6 628.92 293.44C629.053 293.253 629.213 293.12 629.4 293.04C629.587 292.96 629.787 292.92 630 292.92C630.213 292.92 630.413 292.96 630.6 293.04C630.787 293.12 630.933 293.253 631.04 293.44C631.173 293.6 631.253 293.787 631.28 294C631.333 294.187 631.36 294.387 631.36 294.6V298C631.36 298.213 631.333 298.427 631.28 298.64C631.253 298.827 631.173 299.013 631.04 299.2C630.933 299.36 630.787 299.48 630.6 299.56C630.413 299.64 630.213 299.68 630 299.68ZM650 311.32C649.28 311.32 648.547 311.253 647.8 311.12C647.08 310.987 646.4 310.747 645.76 310.4C645.12 310.053 644.547 309.613 644.04 309.08C643.533 308.52 643.12 307.92 642.8 307.28C642.507 306.613 642.293 305.92 642.16 305.2C642.053 304.453 642 303.72 642 303V289.6C642 288.88 642.053 288.16 642.16 287.44C642.293 286.693 642.507 286 642.8 285.36C643.12 284.693 643.533 284.093 644.04 283.56C644.547 283 645.12 282.547 645.76 282.2C646.4 281.853 647.08 281.613 647.8 281.48C648.547 281.347 649.28 281.28 650 281.28C650.72 281.28 651.44 281.347 652.16 281.48C652.907 281.613 653.6 281.853 654.24 282.2C654.88 282.547 655.453 283 655.96 283.56C656.467 284.093 656.867 284.693 657.16 285.36C657.48 286 657.693 286.693 657.8 287.44C657.933 288.16 658 288.88 658 289.6V303C658 303.72 657.933 304.453 657.8 305.2C657.693 305.92 657.48 306.613 657.16 307.28C656.867 307.92 656.467 308.52 655.96 309.08C655.453 309.613 654.88 310.053 654.24 310.4C653.6 310.747 652.907 310.987 652.16 311.12C651.44 311.253 650.72 311.32 650 311.32ZM650 307.12C650.48 307.12 650.933 307 651.36 306.76C651.813 306.52 652.16 306.2 652.4 305.8C652.667 305.373 652.84 304.92 652.92 304.44C653 303.96 653.04 303.48 653.04 303V289.6C653.04 289.12 653 288.64 652.92 288.16C652.84 287.68 652.667 287.24 652.4 286.84C652.16 286.413 651.813 286.08 651.36 285.84C650.933 285.6 650.48 285.48 650 285.48C649.52 285.48 649.053 285.6 648.6 285.84C648.173 286.08 647.827 286.413 647.56 286.84C647.32 287.24 647.16 287.68 647.08 288.16C647 288.64 646.96 289.12 646.96 289.6V303C646.96 303.48 647 303.96 647.08 304.44C647.16 304.92 647.32 305.373 647.56 305.8C647.827 306.2 648.173 306.52 648.6 306.76C649.053 307 649.52 307.12 650 307.12ZM650 299.68C649.787 299.68 649.587 299.64 649.4 299.56C649.213 299.48 649.053 299.36 648.92 299.2C648.813 299.013 648.733 298.827 648.68 298.64C648.653 298.427 648.64 298.213 648.64 298V294.6C648.64 294.387 648.653 294.187 648.68 294C648.733 293.787 648.813 293.6 648.92 293.44C649.053 293.253 649.213 293.12 649.4 293.04C649.587 292.96 649.787 292.92 650 292.92C650.213 292.92 650.413 292.96 650.6 293.04C650.787 293.12 650.933 293.253 651.04 293.44C651.173 293.6 651.253 293.787 651.28 294C651.333 294.187 651.36 294.387 651.36 294.6V298C651.36 298.213 651.333 298.427 651.28 298.64C651.253 298.827 651.173 299.013 651.04 299.2C650.933 299.36 650.787 299.48 650.6 299.56C650.413 299.64 650.213 299.68 650 299.68ZM670.12 311.32C669.427 311.32 668.747 311.253 668.08 311.12C667.413 311.013 666.773 310.813 666.16 310.52C665.573 310.2 665.027 309.813 664.52 309.36C664.04 308.88 663.64 308.347 663.32 307.76C663 307.147 662.747 306.52 662.56 305.88C662.4 305.213 662.293 304.547 662.24 303.88H667.24C667.267 304.28 667.333 304.68 667.44 305.08C667.573 305.453 667.76 305.8 668 306.12C668.24 306.44 668.547 306.693 668.92 306.88C669.293 307.04 669.693 307.12 670.12 307.12C670.493 307.12 670.853 307.027 671.2 306.84C671.547 306.627 671.827 306.36 672.04 306.04C672.253 305.72 672.427 305.387 672.56 305.04C672.693 304.667 672.787 304.293 672.84 303.92C672.92 303.52 672.973 303.133 673 302.76C673.027 302.36 673.04 301.973 673.04 301.6C673.04 301.2 673.027 300.813 673 300.44C672.973 300.067 672.92 299.693 672.84 299.32C672.787 298.947 672.693 298.573 672.56 298.2C672.453 297.827 672.293 297.48 672.08 297.16C671.893 296.84 671.627 296.587 671.28 296.4C670.96 296.187 670.613 296.08 670.24 296.08C669.893 296.08 669.56 296.12 669.24 296.2C668.92 296.28 668.627 296.44 668.36 296.68C668.12 296.893 667.933 297.16 667.8 297.48C667.667 297.8 667.6 298.133 667.6 298.48H662.6L662.96 294.28L664 281.6H676.92V285.8H668.64L668.12 292.04C668.467 291.987 668.813 291.947 669.16 291.92C669.533 291.893 669.893 291.88 670.24 291.88C671.013 291.88 671.787 291.987 672.56 292.2C673.333 292.387 674.027 292.72 674.64 293.2C675.28 293.653 675.827 294.213 676.28 294.88C676.733 295.52 677.08 296.213 677.32 296.96C677.587 297.707 677.76 298.467 677.84 299.24C677.947 300.013 678 300.8 678 301.6C678 302.373 677.947 303.16 677.84 303.96C677.76 304.76 677.587 305.533 677.32 306.28C677.053 307 676.693 307.693 676.24 308.36C675.787 309.027 675.227 309.587 674.56 310.04C673.92 310.493 673.213 310.813 672.44 311C671.667 311.213 670.893 311.32 670.12 311.32Z" fill="black"/>
<rect x="180" y="268" width="100" height="56" rx="4" fill="#FFBE25"/>
<path d="M210 311.32C209.28 311.32 208.547 311.253 207.8 311.12C207.08 310.987 206.4 310.747 205.76 310.4C205.12 310.053 204.547 309.613 204.04 309.08C203.533 308.52 203.12 307.92 202.8 307.28C202.507 306.613 202.293 305.92 202.16 305.2C202.053 304.453 202 303.72 202 303V289.6C202 288.88 202.053 288.16 202.16 287.44C202.293 286.693 202.507 286 202.8 285.36C203.12 284.693 203.533 284.093 204.04 283.56C204.547 283 205.12 282.547 205.76 282.2C206.4 281.853 207.08 281.613 207.8 281.48C208.547 281.347 209.28 281.28 210 281.28C210.72 281.28 211.44 281.347 212.16 281.48C212.907 281.613 213.6 281.853 214.24 282.2C214.88 282.547 215.453 283 215.96 283.56C216.467 284.093 216.867 284.693 217.16 285.36C217.48 286 217.693 286.693 217.8 287.44C217.933 288.16 218 288.88 218 289.6V303C218 303.72 217.933 304.453 217.8 305.2C217.693 305.92 217.48 306.613 217.16 307.28C216.867 307.92 216.467 308.52 215.96 309.08C215.453 309.613 214.88 310.053 214.24 310.4C213.6 310.747 212.907 310.987 212.16 311.12C211.44 311.253 210.72 311.32 210 311.32ZM210 307.12C210.48 307.12 210.933 307 211.36 306.76C211.813 306.52 212.16 306.2 212.4 305.8C212.667 305.373 212.84 304.92 212.92 304.44C213 303.96 213.04 303.48 213.04 303V289.6C213.04 289.12 213 288.64 212.92 288.16C212.84 287.68 212.667 287.24 212.4 286.84C212.16 286.413 211.813 286.08 211.36 285.84C210.933 285.6 210.48 285.48 210 285.48C209.52 285.48 209.053 285.6 208.6 285.84C208.173 286.08 207.827 286.413 207.56 286.84C207.32 287.24 207.16 287.68 207.08 288.16C207 288.64 206.96 289.12 206.96 289.6V303C206.96 303.48 207 303.96 207.08 304.44C207.16 304.92 207.32 305.373 207.56 305.8C207.827 306.2 208.173 306.52 208.6 306.76C209.053 307 209.52 307.12 210 307.12ZM210 299.68C209.787 299.68 209.587 299.64 209.4 299.56C209.213 299.48 209.053 299.36 208.92 299.2C208.813 299.013 208.733 298.827 208.68 298.64C208.653 298.427 208.64 298.213 208.64 298V294.6C208.64 294.387 208.653 294.187 208.68 294C208.733 293.787 208.813 293.6 208.92 293.44C209.053 293.253 209.213 293.12 209.4 293.04C209.587 292.96 209.787 292.92 210 292.92C210.213 292.92 210.413 292.96 210.6 293.04C210.787 293.12 210.933 293.253 211.04 293.44C211.173 293.6 211.253 293.787 211.28 294C211.333 294.187 211.36 294.387 211.36 294.6V298C211.36 298.213 211.333 298.427 211.28 298.64C211.253 298.827 211.173 299.013 211.04 299.2C210.933 299.36 210.787 299.48 210.6 299.56C210.413 299.64 210.213 299.68 210 299.68ZM230 311.32C229.28 311.32 228.547 311.253 227.8 311.12C227.08 310.987 226.4 310.747 225.76 310.4C225.12 310.053 224.547 309.613 224.04 309.08C223.533 308.52 223.12 307.92 222.8 307.28C222.507 306.613 222.293 305.92 222.16 305.2C222.053 304.453 222 303.72 222 303V289.6C222 288.88 222.053 288.16 222.16 287.44C222.293 286.693 222.507 286 222.8 285.36C223.12 284.693 223.533 284.093 224.04 283.56C224.547 283 225.12 282.547 225.76 282.2C226.4 281.853 227.08 281.613 227.8 281.48C228.547 281.347 229.28 281.28 230 281.28C230.72 281.28 231.44 281.347 232.16 281.48C232.907 281.613 233.6 281.853 234.24 282.2C234.88 282.547 235.453 283 235.96 283.56C236.467 284.093 236.867 284.693 237.16 285.36C237.48 286 237.693 286.693 237.8 287.44C237.933 288.16 238 288.88 238 289.6V303C238 303.72 237.933 304.453 237.8 305.2C237.693 305.92 237.48 306.613 237.16 307.28C236.867 307.92 236.467 308.52 235.96 309.08C235.453 309.613 234.88 310.053 234.24 310.4C233.6 310.747 232.907 310.987 232.16 311.12C231.44 311.253 230.72 311.32 230 311.32ZM230 307.12C230.48 307.12 230.933 307 231.36 306.76C231.813 306.52 232.16 306.2 232.4 305.8C232.667 305.373 232.84 304.92 232.92 304.44C233 303.96 233.04 303.48 233.04 303V289.6C233.04 289.12 233 288.64 232.92 288.16C232.84 287.68 232.667 287.24 232.4 286.84C232.16 286.413 231.813 286.08 231.36 285.84C230.933 285.6 230.48 285.48 230 285.48C229.52 285.48 229.053 285.6 228.6 285.84C228.173 286.08 227.827 286.413 227.56 286.84C227.32 287.24 227.16 287.68 227.08 288.16C227 288.64 226.96 289.12 226.96 289.6V303C226.96 303.48 227 303.96 227.08 304.44C227.16 304.92 227.32 305.373 227.56 305.8C227.827 306.2 228.173 306.52 228.6 306.76C229.053 307 229.52 307.12 230 307.12ZM230 299.68C229.787 299.68 229.587 299.64 229.4 299.56C229.213 299.48 229.053 299.36 228.92 299.2C228.813 299.013 228.733 298.827 228.68 298.64C228.653 298.427 228.64 298.213 228.64 298V294.6C228.64 294.387 228.653 294.187 228.68 294C228.733 293.787 228.813 293.6 228.92 293.44C229.053 293.253 229.213 293.12 229.4 293.04C229.587 292.96 229.787 292.92 230 292.92C230.213 292.92 230.413 292.96 230.6 293.04C230.787 293.12 230.933 293.253 231.04 293.44C231.173 293.6 231.253 293.787 231.28 294C231.333 294.187 231.36 294.387 231.36 294.6V298C231.36 298.213 231.333 298.427 231.28 298.64C231.253 298.827 231.173 299.013 231.04 299.2C230.933 299.36 230.787 299.48 230.6 299.56C230.413 299.64 230.213 299.68 230 299.68ZM242.32 311V306.8L249.96 296.28C250.307 295.8 250.653 295.32 251 294.84C251.373 294.333 251.693 293.827 251.96 293.32C252.253 292.787 252.48 292.227 252.64 291.64C252.8 291.053 252.88 290.453 252.88 289.84C252.88 289.52 252.867 289.2 252.84 288.88C252.813 288.533 252.76 288.213 252.68 287.92C252.6 287.6 252.48 287.293 252.32 287C252.187 286.707 252 286.44 251.76 286.2C251.547 285.96 251.28 285.787 250.96 285.68C250.667 285.547 250.36 285.48 250.04 285.48C249.613 285.48 249.2 285.587 248.8 285.8C248.4 286.013 248.08 286.307 247.84 286.68C247.6 287.027 247.427 287.413 247.32 287.84C247.24 288.267 247.2 288.707 247.2 289.16V289.28H242.24V289C242.24 288.307 242.307 287.627 242.44 286.96C242.6 286.267 242.84 285.613 243.16 285C243.48 284.387 243.88 283.84 244.36 283.36C244.867 282.853 245.427 282.44 246.04 282.12C246.653 281.8 247.293 281.587 247.96 281.48C248.653 281.347 249.347 281.28 250.04 281.28C250.76 281.28 251.48 281.36 252.2 281.52C252.947 281.653 253.627 281.907 254.24 282.28C254.88 282.653 255.44 283.12 255.92 283.68C256.4 284.24 256.787 284.867 257.08 285.56C257.373 286.227 257.573 286.933 257.68 287.68C257.787 288.4 257.84 289.12 257.84 289.84C257.84 290.667 257.733 291.493 257.52 292.32C257.333 293.12 257.053 293.893 256.68 294.64C256.307 295.36 255.88 296.067 255.4 296.76C254.92 297.427 254.44 298.093 253.96 298.76L248.12 306.8H257.68V311H242.32Z" fill="black"/>
<rect x="740" y="268" width="100" height="56" rx="4" fill="#FFBE25"/>
<path d="M770 311.32C769.28 311.32 768.547 311.253 767.8 311.12C767.08 310.987 766.4 310.747 765.76 310.4C765.12 310.053 764.547 309.613 764.04 309.08C763.533 308.52 763.12 307.92 762.8 307.28C762.507 306.613 762.293 305.92 762.16 305.2C762.053 304.453 762 303.72 762 303V289.6C762 288.88 762.053 288.16 762.16 287.44C762.293 286.693 762.507 286 762.8 285.36C763.12 284.693 763.533 284.093 764.04 283.56C764.547 283 765.12 282.547 765.76 282.2C766.4 281.853 767.08 281.613 767.8 281.48C768.547 281.347 769.28 281.28 770 281.28C770.72 281.28 771.44 281.347 772.16 281.48C772.907 281.613 773.6 281.853 774.24 282.2C774.88 282.547 775.453 283 775.96 283.56C776.467 284.093 776.867 284.693 777.16 285.36C777.48 286 777.693 286.693 777.8 287.44C777.933 288.16 778 288.88 778 289.6V303C778 303.72 777.933 304.453 777.8 305.2C777.693 305.92 777.48 306.613 777.16 307.28C776.867 307.92 776.467 308.52 775.96 309.08C775.453 309.613 774.88 310.053 774.24 310.4C773.6 310.747 772.907 310.987 772.16 311.12C771.44 311.253 770.72 311.32 770 311.32ZM770 307.12C770.48 307.12 770.933 307 771.36 306.76C771.813 306.52 772.16 306.2 772.4 305.8C772.667 305.373 772.84 304.92 772.92 304.44C773 303.96 773.04 303.48 773.04 303V289.6C773.04 289.12 773 288.64 772.92 288.16C772.84 287.68 772.667 287.24 772.4 286.84C772.16 286.413 771.813 286.08 771.36 285.84C770.933 285.6 770.48 285.48 770 285.48C769.52 285.48 769.053 285.6 768.6 285.84C768.173 286.08 767.827 286.413 767.56 286.84C767.32 287.24 767.16 287.68 767.08 288.16C767 288.64 766.96 289.12 766.96 289.6V303C766.96 303.48 767 303.96 767.08 304.44C767.16 304.92 767.32 305.373 767.56 305.8C767.827 306.2 768.173 306.52 768.6 306.76C769.053 307 769.52 307.12 770 307.12ZM770 299.68C769.787 299.68 769.587 299.64 769.4 299.56C769.213 299.48 769.053 299.36 768.92 299.2C768.813 299.013 768.733 298.827 768.68 298.64C768.653 298.427 768.64 298.213 768.64 298V294.6C768.64 294.387 768.653 294.187 768.68 294C768.733 293.787 768.813 293.6 768.92 293.44C769.053 293.253 769.213 293.12 769.4 293.04C769.587 292.96 769.787 292.92 770 292.92C770.213 292.92 770.413 292.96 770.6 293.04C770.787 293.12 770.933 293.253 771.04 293.44C771.173 293.6 771.253 293.787 771.28 294C771.333 294.187 771.36 294.387 771.36 294.6V298C771.36 298.213 771.333 298.427 771.28 298.64C771.253 298.827 771.173 299.013 771.04 299.2C770.933 299.36 770.787 299.48 770.6 299.56C770.413 299.64 770.213 299.68 770 299.68ZM790 311.32C789.28 311.32 788.547 311.253 787.8 311.12C787.08 310.987 786.4 310.747 785.76 310.4C785.12 310.053 784.547 309.613 784.04 309.08C783.533 308.52 783.12 307.92 782.8 307.28C782.507 306.613 782.293 305.92 782.16 305.2C782.053 304.453 782 303.72 782 303V289.6C782 288.88 782.053 288.16 782.16 287.44C782.293 286.693 782.507 286 782.8 285.36C783.12 284.693 783.533 284.093 784.04 283.56C784.547 283 785.12 282.547 785.76 282.2C786.4 281.853 787.08 281.613 787.8 281.48C788.547 281.347 789.28 281.28 790 281.28C790.72 281.28 791.44 281.347 792.16 281.48C792.907 281.613 793.6 281.853 794.24 282.2C794.88 282.547 795.453 283 795.96 283.56C796.467 284.093 796.867 284.693 797.16 285.36C797.48 286 797.693 286.693 797.8 287.44C797.933 288.16 798 288.88 798 289.6V303C798 303.72 797.933 304.453 797.8 305.2C797.693 305.92 797.48 306.613 797.16 307.28C796.867 307.92 796.467 308.52 795.96 309.08C795.453 309.613 794.88 310.053 794.24 310.4C793.6 310.747 792.907 310.987 792.16 311.12C791.44 311.253 790.72 311.32 790 311.32ZM790 307.12C790.48 307.12 790.933 307 791.36 306.76C791.813 306.52 792.16 306.2 792.4 305.8C792.667 305.373 792.84 304.92 792.92 304.44C793 303.96 793.04 303.48 793.04 303V289.6C793.04 289.12 793 288.64 792.92 288.16C792.84 287.68 792.667 287.24 792.4 286.84C792.16 286.413 791.813 286.08 791.36 285.84C790.933 285.6 790.48 285.48 790 285.48C789.52 285.48 789.053 285.6 788.6 285.84C788.173 286.08 787.827 286.413 787.56 286.84C787.32 287.24 787.16 287.68 787.08 288.16C787 288.64 786.96 289.12 786.96 289.6V303C786.96 303.48 787 303.96 787.08 304.44C787.16 304.92 787.32 305.373 787.56 305.8C787.827 306.2 788.173 306.52 788.6 306.76C789.053 307 789.52 307.12 790 307.12ZM790 299.68C789.787 299.68 789.587 299.64 789.4 299.56C789.213 299.48 789.053 299.36 788.92 299.2C788.813 299.013 788.733 298.827 788.68 298.64C788.653 298.427 788.64 298.213 788.64 298V294.6C788.64 294.387 788.653 294.187 788.68 294C788.733 293.787 788.813 293.6 788.92 293.44C789.053 293.253 789.213 293.12 789.4 293.04C789.587 292.96 789.787 292.92 790 292.92C790.213 292.92 790.413 292.96 790.6 293.04C790.787 293.12 790.933 293.253 791.04 293.44C791.173 293.6 791.253 293.787 791.28 294C791.333 294.187 791.36 294.387 791.36 294.6V298C791.36 298.213 791.333 298.427 791.28 298.64C791.253 298.827 791.173 299.013 791.04 299.2C790.933 299.36 790.787 299.48 790.6 299.56C790.413 299.64 790.213 299.68 790 299.68ZM810 311.32C809.227 311.32 808.453 311.227 807.68 311.04C806.907 310.853 806.187 310.547 805.52 310.12C804.88 309.693 804.32 309.16 803.84 308.52C803.387 307.88 803.013 307.2 802.72 306.48C802.453 305.733 802.267 304.973 802.16 304.2C802.053 303.427 802 302.653 802 301.88C802 300.413 802.08 298.96 802.24 297.52C802.4 296.08 802.64 294.667 802.96 293.28C803.28 291.867 803.747 290.507 804.36 289.2C805 287.867 805.8 286.667 806.76 285.6C807.747 284.507 808.867 283.6 810.12 282.88C811.4 282.133 812.733 281.6 814.12 281.28L815.36 285.36C814.32 285.653 813.333 286.12 812.4 286.76C811.493 287.4 810.707 288.16 810.04 289.04C809.4 289.92 808.88 290.88 808.48 291.92C808.107 292.933 807.813 293.973 807.6 295.04C807.84 294.64 808.107 294.28 808.4 293.96C808.72 293.613 809.067 293.32 809.44 293.08C809.84 292.84 810.267 292.667 810.72 292.56C811.173 292.453 811.627 292.4 812.08 292.4C812.773 292.4 813.44 292.547 814.08 292.84C814.747 293.107 815.307 293.507 815.76 294.04C816.24 294.547 816.627 295.12 816.92 295.76C817.213 296.4 817.44 297.053 817.6 297.72C817.76 298.387 817.867 299.08 817.92 299.8C817.973 300.493 818 301.187 818 301.88C818 302.653 817.947 303.427 817.84 304.2C817.733 304.973 817.533 305.733 817.24 306.48C816.973 307.2 816.6 307.88 816.12 308.52C815.667 309.16 815.107 309.693 814.44 310.12C813.8 310.547 813.093 310.853 812.32 311.04C811.547 311.227 810.773 311.32 810 311.32ZM810 307.12C810.373 307.12 810.733 307.04 811.08 306.88C811.427 306.693 811.72 306.453 811.96 306.16C812.2 305.867 812.387 305.547 812.52 305.2C812.653 304.853 812.76 304.493 812.84 304.12C812.92 303.747 812.973 303.373 813 303C813.027 302.627 813.04 302.253 813.04 301.88C813.04 301.507 813.027 301.133 813 300.76C812.973 300.36 812.92 299.987 812.84 299.64C812.76 299.267 812.653 298.907 812.52 298.56C812.387 298.187 812.2 297.853 811.96 297.56C811.72 297.267 811.427 297.04 811.08 296.88C810.733 296.693 810.373 296.6 810 296.6C809.547 296.6 809.107 296.733 808.68 297C808.28 297.267 807.96 297.6 807.72 298C807.507 298.4 807.333 298.827 807.2 299.28C807.093 299.733 807.027 300.2 807 300.68C806.973 300.867 806.96 301.067 806.96 301.28C806.96 301.467 806.96 301.667 806.96 301.88C806.96 302.253 806.973 302.627 807 303C807.027 303.373 807.08 303.747 807.16 304.12C807.24 304.493 807.347 304.853 807.48 305.2C807.613 305.547 807.8 305.867 808.04 306.16C808.28 306.453 808.573 306.693 808.92 306.88C809.267 307.04 809.627 307.12 810 307.12Z" fill="black"/>
<rect x="320" y="268" width="100" height="56" rx="4" fill="#FFBE25"/>
<path d="M350 311.32C349.28 311.32 348.547 311.253 347.8 311.12C347.08 310.987 346.4 310.747 345.76 310.4C345.12 310.053 344.547 309.613 344.04 309.08C343.533 308.52 343.12 307.92 342.8 307.28C342.507 306.613 342.293 305.92 342.16 305.2C342.053 304.453 342 303.72 342 303V289.6C342 288.88 342.053 288.16 342.16 287.44C342.293 286.693 342.507 286 342.8 285.36C343.12 284.693 343.533 284.093 344.04 283.56C344.547 283 345.12 282.547 345.76 282.2C346.4 281.853 347.08 281.613 347.8 281.48C348.547 281.347 349.28 281.28 350 281.28C350.72 281.28 351.44 281.347 352.16 281.48C352.907 281.613 353.6 281.853 354.24 282.2C354.88 282.547 355.453 283 355.96 283.56C356.467 284.093 356.867 284.693 357.16 285.36C357.48 286 357.693 286.693 357.8 287.44C357.933 288.16 358 288.88 358 289.6V303C358 303.72 357.933 304.453 357.8 305.2C357.693 305.92 357.48 306.613 357.16 307.28C356.867 307.92 356.467 308.52 355.96 309.08C355.453 309.613 354.88 310.053 354.24 310.4C353.6 310.747 352.907 310.987 352.16 311.12C351.44 311.253 350.72 311.32 350 311.32ZM350 307.12C350.48 307.12 350.933 307 351.36 306.76C351.813 306.52 352.16 306.2 352.4 305.8C352.667 305.373 352.84 304.92 352.92 304.44C353 303.96 353.04 303.48 353.04 303V289.6C353.04 289.12 353 288.64 352.92 288.16C352.84 287.68 352.667 287.24 352.4 286.84C352.16 286.413 351.813 286.08 351.36 285.84C350.933 285.6 350.48 285.48 350 285.48C349.52 285.48 349.053 285.6 348.6 285.84C348.173 286.08 347.827 286.413 347.56 286.84C347.32 287.24 347.16 287.68 347.08 288.16C347 288.64 346.96 289.12 346.96 289.6V303C346.96 303.48 347 303.96 347.08 304.44C347.16 304.92 347.32 305.373 347.56 305.8C347.827 306.2 348.173 306.52 348.6 306.76C349.053 307 349.52 307.12 350 307.12ZM350 299.68C349.787 299.68 349.587 299.64 349.4 299.56C349.213 299.48 349.053 299.36 348.92 299.2C348.813 299.013 348.733 298.827 348.68 298.64C348.653 298.427 348.64 298.213 348.64 298V294.6C348.64 294.387 348.653 294.187 348.68 294C348.733 293.787 348.813 293.6 348.92 293.44C349.053 293.253 349.213 293.12 349.4 293.04C349.587 292.96 349.787 292.92 350 292.92C350.213 292.92 350.413 292.96 350.6 293.04C350.787 293.12 350.933 293.253 351.04 293.44C351.173 293.6 351.253 293.787 351.28 294C351.333 294.187 351.36 294.387 351.36 294.6V298C351.36 298.213 351.333 298.427 351.28 298.64C351.253 298.827 351.173 299.013 351.04 299.2C350.933 299.36 350.787 299.48 350.6 299.56C350.413 299.64 350.213 299.68 350 299.68ZM370 311.32C369.28 311.32 368.547 311.253 367.8 311.12C367.08 310.987 366.4 310.747 365.76 310.4C365.12 310.053 364.547 309.613 364.04 309.08C363.533 308.52 363.12 307.92 362.8 307.28C362.507 306.613 362.293 305.92 362.16 305.2C362.053 304.453 362 303.72 362 303V289.6C362 288.88 362.053 288.16 362.16 287.44C362.293 286.693 362.507 286 362.8 285.36C363.12 284.693 363.533 284.093 364.04 283.56C364.547 283 365.12 282.547 365.76 282.2C366.4 281.853 367.08 281.613 367.8 281.48C368.547 281.347 369.28 281.28 370 281.28C370.72 281.28 371.44 281.347 372.16 281.48C372.907 281.613 373.6 281.853 374.24 282.2C374.88 282.547 375.453 283 375.96 283.56C376.467 284.093 376.867 284.693 377.16 285.36C377.48 286 377.693 286.693 377.8 287.44C377.933 288.16 378 288.88 378 289.6V303C378 303.72 377.933 304.453 377.8 305.2C377.693 305.92 377.48 306.613 377.16 307.28C376.867 307.92 376.467 308.52 375.96 309.08C375.453 309.613 374.88 310.053 374.24 310.4C373.6 310.747 372.907 310.987 372.16 311.12C371.44 311.253 370.72 311.32 370 311.32ZM370 307.12C370.48 307.12 370.933 307 371.36 306.76C371.813 306.52 372.16 306.2 372.4 305.8C372.667 305.373 372.84 304.92 372.92 304.44C373 303.96 373.04 303.48 373.04 303V289.6C373.04 289.12 373 288.64 372.92 288.16C372.84 287.68 372.667 287.24 372.4 286.84C372.16 286.413 371.813 286.08 371.36 285.84C370.933 285.6 370.48 285.48 370 285.48C369.52 285.48 369.053 285.6 368.6 285.84C368.173 286.08 367.827 286.413 367.56 286.84C367.32 287.24 367.16 287.68 367.08 288.16C367 288.64 366.96 289.12 366.96 289.6V303C366.96 303.48 367 303.96 367.08 304.44C367.16 304.92 367.32 305.373 367.56 305.8C367.827 306.2 368.173 306.52 368.6 306.76C369.053 307 369.52 307.12 370 307.12ZM370 299.68C369.787 299.68 369.587 299.64 369.4 299.56C369.213 299.48 369.053 299.36 368.92 299.2C368.813 299.013 368.733 298.827 368.68 298.64C368.653 298.427 368.64 298.213 368.64 298V294.6C368.64 294.387 368.653 294.187 368.68 294C368.733 293.787 368.813 293.6 368.92 293.44C369.053 293.253 369.213 293.12 369.4 293.04C369.587 292.96 369.787 292.92 370 292.92C370.213 292.92 370.413 292.96 370.6 293.04C370.787 293.12 370.933 293.253 371.04 293.44C371.173 293.6 371.253 293.787 371.28 294C371.333 294.187 371.36 294.387 371.36 294.6V298C371.36 298.213 371.333 298.427 371.28 298.64C371.253 298.827 371.173 299.013 371.04 299.2C370.933 299.36 370.787 299.48 370.6 299.56C370.413 299.64 370.213 299.68 370 299.68ZM390.12 311.32C389.4 311.32 388.68 311.253 387.96 311.12C387.267 311.013 386.6 310.813 385.96 310.52C385.347 310.2 384.773 309.8 384.24 309.32C383.707 308.813 383.267 308.253 382.92 307.64C382.573 307.027 382.32 306.373 382.16 305.68C382 304.96 381.92 304.253 381.92 303.56V303.32H386.88V303.44C386.88 303.893 386.933 304.347 387.04 304.8C387.173 305.253 387.387 305.667 387.68 306.04C387.973 306.387 388.333 306.653 388.76 306.84C389.213 307.027 389.667 307.12 390.12 307.12C390.627 307.12 391.107 307 391.56 306.76C392.013 306.52 392.373 306.2 392.64 305.8C392.907 305.373 393.093 304.92 393.2 304.44C393.307 303.933 393.36 303.427 393.36 302.92C393.36 302.493 393.32 302.067 393.24 301.64C393.16 301.187 393.027 300.76 392.84 300.36C392.653 299.96 392.4 299.6 392.08 299.28C391.787 298.933 391.44 298.667 391.04 298.48C390.64 298.293 390.213 298.173 389.76 298.12C389.333 298.067 388.907 298.04 388.48 298.04V293.84C388.853 293.84 389.24 293.813 389.64 293.76C390.04 293.707 390.413 293.6 390.76 293.44C391.107 293.253 391.413 293.013 391.68 292.72C391.947 292.4 392.16 292.053 392.32 291.68C392.48 291.307 392.587 290.933 392.64 290.56C392.693 290.16 392.72 289.76 392.72 289.36C392.72 288.907 392.68 288.467 392.6 288.04C392.547 287.613 392.413 287.213 392.2 286.84C392.013 286.44 391.72 286.12 391.32 285.88C390.947 285.613 390.547 285.48 390.12 285.48C389.693 285.48 389.293 285.6 388.92 285.84C388.547 286.053 388.253 286.347 388.04 286.72C387.853 287.067 387.72 287.453 387.64 287.88C387.56 288.307 387.52 288.72 387.52 289.12V289.28H382.56V288.96C382.56 288.293 382.627 287.627 382.76 286.96C382.92 286.293 383.147 285.653 383.44 285.04C383.733 284.427 384.107 283.88 384.56 283.4C385.04 282.893 385.573 282.48 386.16 282.16C386.773 281.84 387.413 281.613 388.08 281.48C388.773 281.347 389.453 281.28 390.12 281.28C390.813 281.28 391.493 281.347 392.16 281.48C392.853 281.613 393.493 281.853 394.08 282.2C394.693 282.547 395.227 282.987 395.68 283.52C396.16 284.027 396.547 284.587 396.84 285.2C397.133 285.813 397.347 286.467 397.48 287.16C397.613 287.827 397.68 288.507 397.68 289.2C397.68 289.867 397.6 290.533 397.44 291.2C397.307 291.84 397.093 292.453 396.8 293.04C396.507 293.627 396.12 294.16 395.64 294.64C395.187 295.12 394.68 295.533 394.12 295.88C394.76 296.2 395.347 296.613 395.88 297.12C396.44 297.627 396.893 298.2 397.24 298.84C397.613 299.48 397.88 300.16 398.04 300.88C398.227 301.6 398.32 302.333 398.32 303.08C398.32 303.8 398.24 304.52 398.08 305.24C397.92 305.96 397.68 306.653 397.36 307.32C397.04 307.96 396.613 308.547 396.08 309.08C395.573 309.613 395 310.053 394.36 310.4C393.72 310.747 393.027 310.987 392.28 311.12C391.56 311.253 390.84 311.32 390.12 311.32Z" fill="black"/>
<rect x="880" y="268" width="100" height="56" rx="4" fill="#FFBE25"/>
<path d="M910 311.32C909.28 311.32 908.547 311.253 907.8 311.12C907.08 310.987 906.4 310.747 905.76 310.4C905.12 310.053 904.547 309.613 904.04 309.08C903.533 308.52 903.12 307.92 902.8 307.28C902.507 306.613 902.293 305.92 902.16 305.2C902.053 304.453 902 303.72 902 303V289.6C902 288.88 902.053 288.16 902.16 287.44C902.293 286.693 902.507 286 902.8 285.36C903.12 284.693 903.533 284.093 904.04 283.56C904.547 283 905.12 282.547 905.76 282.2C906.4 281.853 907.08 281.613 907.8 281.48C908.547 281.347 909.28 281.28 910 281.28C910.72 281.28 911.44 281.347 912.16 281.48C912.907 281.613 913.6 281.853 914.24 282.2C914.88 282.547 915.453 283 915.96 283.56C916.467 284.093 916.867 284.693 917.16 285.36C917.48 286 917.693 286.693 917.8 287.44C917.933 288.16 918 288.88 918 289.6V303C918 303.72 917.933 304.453 917.8 305.2C917.693 305.92 917.48 306.613 917.16 307.28C916.867 307.92 916.467 308.52 915.96 309.08C915.453 309.613 914.88 310.053 914.24 310.4C913.6 310.747 912.907 310.987 912.16 311.12C911.44 311.253 910.72 311.32 910 311.32ZM910 307.12C910.48 307.12 910.933 307 911.36 306.76C911.813 306.52 912.16 306.2 912.4 305.8C912.667 305.373 912.84 304.92 912.92 304.44C913 303.96 913.04 303.48 913.04 303V289.6C913.04 289.12 913 288.64 912.92 288.16C912.84 287.68 912.667 287.24 912.4 286.84C912.16 286.413 911.813 286.08 911.36 285.84C910.933 285.6 910.48 285.48 910 285.48C909.52 285.48 909.053 285.6 908.6 285.84C908.173 286.08 907.827 286.413 907.56 286.84C907.32 287.24 907.16 287.68 907.08 288.16C907 288.64 906.96 289.12 906.96 289.6V303C906.96 303.48 907 303.96 907.08 304.44C907.16 304.92 907.32 305.373 907.56 305.8C907.827 306.2 908.173 306.52 908.6 306.76C909.053 307 909.52 307.12 910 307.12ZM910 299.68C909.787 299.68 909.587 299.64 909.4 299.56C909.213 299.48 909.053 299.36 908.92 299.2C908.813 299.013 908.733 298.827 908.68 298.64C908.653 298.427 908.64 298.213 908.64 298V294.6C908.64 294.387 908.653 294.187 908.68 294C908.733 293.787 908.813 293.6 908.92 293.44C909.053 293.253 909.213 293.12 909.4 293.04C909.587 292.96 909.787 292.92 910 292.92C910.213 292.92 910.413 292.96 910.6 293.04C910.787 293.12 910.933 293.253 911.04 293.44C911.173 293.6 911.253 293.787 911.28 294C911.333 294.187 911.36 294.387 911.36 294.6V298C911.36 298.213 911.333 298.427 911.28 298.64C911.253 298.827 911.173 299.013 911.04 299.2C910.933 299.36 910.787 299.48 910.6 299.56C910.413 299.64 910.213 299.68 910 299.68ZM930 311.32C929.28 311.32 928.547 311.253 927.8 311.12C927.08 310.987 926.4 310.747 925.76 310.4C925.12 310.053 924.547 309.613 924.04 309.08C923.533 308.52 923.12 307.92 922.8 307.28C922.507 306.613 922.293 305.92 922.16 305.2C922.053 304.453 922 303.72 922 303V289.6C922 288.88 922.053 288.16 922.16 287.44C922.293 286.693 922.507 286 922.8 285.36C923.12 284.693 923.533 284.093 924.04 283.56C924.547 283 925.12 282.547 925.76 282.2C926.4 281.853 927.08 281.613 927.8 281.48C928.547 281.347 929.28 281.28 930 281.28C930.72 281.28 931.44 281.347 932.16 281.48C932.907 281.613 933.6 281.853 934.24 282.2C934.88 282.547 935.453 283 935.96 283.56C936.467 284.093 936.867 284.693 937.16 285.36C937.48 286 937.693 286.693 937.8 287.44C937.933 288.16 938 288.88 938 289.6V303C938 303.72 937.933 304.453 937.8 305.2C937.693 305.92 937.48 306.613 937.16 307.28C936.867 307.92 936.467 308.52 935.96 309.08C935.453 309.613 934.88 310.053 934.24 310.4C933.6 310.747 932.907 310.987 932.16 311.12C931.44 311.253 930.72 311.32 930 311.32ZM930 307.12C930.48 307.12 930.933 307 931.36 306.76C931.813 306.52 932.16 306.2 932.4 305.8C932.667 305.373 932.84 304.92 932.92 304.44C933 303.96 933.04 303.48 933.04 303V289.6C933.04 289.12 933 288.64 932.92 288.16C932.84 287.68 932.667 287.24 932.4 286.84C932.16 286.413 931.813 286.08 931.36 285.84C930.933 285.6 930.48 285.48 930 285.48C929.52 285.48 929.053 285.6 928.6 285.84C928.173 286.08 927.827 286.413 927.56 286.84C927.32 287.24 927.16 287.68 927.08 288.16C927 288.64 926.96 289.12 926.96 289.6V303C926.96 303.48 927 303.96 927.08 304.44C927.16 304.92 927.32 305.373 927.56 305.8C927.827 306.2 928.173 306.52 928.6 306.76C929.053 307 929.52 307.12 930 307.12ZM930 299.68C929.787 299.68 929.587 299.64 929.4 299.56C929.213 299.48 929.053 299.36 928.92 299.2C928.813 299.013 928.733 298.827 928.68 298.64C928.653 298.427 928.64 298.213 928.64 298V294.6C928.64 294.387 928.653 294.187 928.68 294C928.733 293.787 928.813 293.6 928.92 293.44C929.053 293.253 929.213 293.12 929.4 293.04C929.587 292.96 929.787 292.92 930 292.92C930.213 292.92 930.413 292.96 930.6 293.04C930.787 293.12 930.933 293.253 931.04 293.44C931.173 293.6 931.253 293.787 931.28 294C931.333 294.187 931.36 294.387 931.36 294.6V298C931.36 298.213 931.333 298.427 931.28 298.64C931.253 298.827 931.173 299.013 931.04 299.2C930.933 299.36 930.787 299.48 930.6 299.56C930.413 299.64 930.213 299.68 930 299.68ZM945.24 311L952.56 285.8H946V289.08H942.32V281.6H957.68V285.8L950.32 311H945.24Z" fill="black"/>
<rect x="460" y="268" width="100" height="56" rx="4" fill="#FFBE25"/>
<path d="M490 311.32C489.28 311.32 488.547 311.253 487.8 311.12C487.08 310.987 486.4 310.747 485.76 310.4C485.12 310.053 484.547 309.613 484.04 309.08C483.533 308.52 483.12 307.92 482.8 307.28C482.507 306.613 482.293 305.92 482.16 305.2C482.053 304.453 482 303.72 482 303V289.6C482 288.88 482.053 288.16 482.16 287.44C482.293 286.693 482.507 286 482.8 285.36C483.12 284.693 483.533 284.093 484.04 283.56C484.547 283 485.12 282.547 485.76 282.2C486.4 281.853 487.08 281.613 487.8 281.48C488.547 281.347 489.28 281.28 490 281.28C490.72 281.28 491.44 281.347 492.16 281.48C492.907 281.613 493.6 281.853 494.24 282.2C494.88 282.547 495.453 283 495.96 283.56C496.467 284.093 496.867 284.693 497.16 285.36C497.48 286 497.693 286.693 497.8 287.44C497.933 288.16 498 288.88 498 289.6V303C498 303.72 497.933 304.453 497.8 305.2C497.693 305.92 497.48 306.613 497.16 307.28C496.867 307.92 496.467 308.52 495.96 309.08C495.453 309.613 494.88 310.053 494.24 310.4C493.6 310.747 492.907 310.987 492.16 311.12C491.44 311.253 490.72 311.32 490 311.32ZM490 307.12C490.48 307.12 490.933 307 491.36 306.76C491.813 306.52 492.16 306.2 492.4 305.8C492.667 305.373 492.84 304.92 492.92 304.44C493 303.96 493.04 303.48 493.04 303V289.6C493.04 289.12 493 288.64 492.92 288.16C492.84 287.68 492.667 287.24 492.4 286.84C492.16 286.413 491.813 286.08 491.36 285.84C490.933 285.6 490.48 285.48 490 285.48C489.52 285.48 489.053 285.6 488.6 285.84C488.173 286.08 487.827 286.413 487.56 286.84C487.32 287.24 487.16 287.68 487.08 288.16C487 288.64 486.96 289.12 486.96 289.6V303C486.96 303.48 487 303.96 487.08 304.44C487.16 304.92 487.32 305.373 487.56 305.8C487.827 306.2 488.173 306.52 488.6 306.76C489.053 307 489.52 307.12 490 307.12ZM490 299.68C489.787 299.68 489.587 299.64 489.4 299.56C489.213 299.48 489.053 299.36 488.92 299.2C488.813 299.013 488.733 298.827 488.68 298.64C488.653 298.427 488.64 298.213 488.64 298V294.6C488.64 294.387 488.653 294.187 488.68 294C488.733 293.787 488.813 293.6 488.92 293.44C489.053 293.253 489.213 293.12 489.4 293.04C489.587 292.96 489.787 292.92 490 292.92C490.213 292.92 490.413 292.96 490.6 293.04C490.787 293.12 490.933 293.253 491.04 293.44C491.173 293.6 491.253 293.787 491.28 294C491.333 294.187 491.36 294.387 491.36 294.6V298C491.36 298.213 491.333 298.427 491.28 298.64C491.253 298.827 491.173 299.013 491.04 299.2C490.933 299.36 490.787 299.48 490.6 299.56C490.413 299.64 490.213 299.68 490 299.68ZM510 311.32C509.28 311.32 508.547 311.253 507.8 311.12C507.08 310.987 506.4 310.747 505.76 310.4C505.12 310.053 504.547 309.613 504.04 309.08C503.533 308.52 503.12 307.92 502.8 307.28C502.507 306.613 502.293 305.92 502.16 305.2C502.053 304.453 502 303.72 502 303V289.6C502 288.88 502.053 288.16 502.16 287.44C502.293 286.693 502.507 286 502.8 285.36C503.12 284.693 503.533 284.093 504.04 283.56C504.547 283 505.12 282.547 505.76 282.2C506.4 281.853 507.08 281.613 507.8 281.48C508.547 281.347 509.28 281.28 510 281.28C510.72 281.28 511.44 281.347 512.16 281.48C512.907 281.613 513.6 281.853 514.24 282.2C514.88 282.547 515.453 283 515.96 283.56C516.467 284.093 516.867 284.693 517.16 285.36C517.48 286 517.693 286.693 517.8 287.44C517.933 288.16 518 288.88 518 289.6V303C518 303.72 517.933 304.453 517.8 305.2C517.693 305.92 517.48 306.613 517.16 307.28C516.867 307.92 516.467 308.52 515.96 309.08C515.453 309.613 514.88 310.053 514.24 310.4C513.6 310.747 512.907 310.987 512.16 311.12C511.44 311.253 510.72 311.32 510 311.32ZM510 307.12C510.48 307.12 510.933 307 511.36 306.76C511.813 306.52 512.16 306.2 512.4 305.8C512.667 305.373 512.84 304.92 512.92 304.44C513 303.96 513.04 303.48 513.04 303V289.6C513.04 289.12 513 288.64 512.92 288.16C512.84 287.68 512.667 287.24 512.4 286.84C512.16 286.413 511.813 286.08 511.36 285.84C510.933 285.6 510.48 285.48 510 285.48C509.52 285.48 509.053 285.6 508.6 285.84C508.173 286.08 507.827 286.413 507.56 286.84C507.32 287.24 507.16 287.68 507.08 288.16C507 288.64 506.96 289.12 506.96 289.6V303C506.96 303.48 507 303.96 507.08 304.44C507.16 304.92 507.32 305.373 507.56 305.8C507.827 306.2 508.173 306.52 508.6 306.76C509.053 307 509.52 307.12 510 307.12ZM510 299.68C509.787 299.68 509.587 299.64 509.4 299.56C509.213 299.48 509.053 299.36 508.92 299.2C508.813 299.013 508.733 298.827 508.68 298.64C508.653 298.427 508.64 298.213 508.64 298V294.6C508.64 294.387 508.653 294.187 508.68 294C508.733 293.787 508.813 293.6 508.92 293.44C509.053 293.253 509.213 293.12 509.4 293.04C509.587 292.96 509.787 292.92 510 292.92C510.213 292.92 510.413 292.96 510.6 293.04C510.787 293.12 510.933 293.253 511.04 293.44C511.173 293.6 511.253 293.787 511.28 294C511.333 294.187 511.36 294.387 511.36 294.6V298C511.36 298.213 511.333 298.427 511.28 298.64C511.253 298.827 511.173 299.013 511.04 299.2C510.933 299.36 510.787 299.48 510.6 299.56C510.413 299.64 510.213 299.68 510 299.68ZM530.76 311V303.76H522V299.56L529.68 281.6H535.68V299.56H537.68V303.76H535.68V311H530.76ZM526.56 299.56H530.76V289.76L526.56 299.56Z" fill="black"/>
<rect x="1020" y="268" width="100" height="56" rx="4" fill="#FFBE25"/>
<path d="M1050 311.32C1049.28 311.32 1048.55 311.253 1047.8 311.12C1047.08 310.987 1046.4 310.747 1045.76 310.4C1045.12 310.053 1044.55 309.613 1044.04 309.08C1043.53 308.52 1043.12 307.92 1042.8 307.28C1042.51 306.613 1042.29 305.92 1042.16 305.2C1042.05 304.453 1042 303.72 1042 303V289.6C1042 288.88 1042.05 288.16 1042.16 287.44C1042.29 286.693 1042.51 286 1042.8 285.36C1043.12 284.693 1043.53 284.093 1044.04 283.56C1044.55 283 1045.12 282.547 1045.76 282.2C1046.4 281.853 1047.08 281.613 1047.8 281.48C1048.55 281.347 1049.28 281.28 1050 281.28C1050.72 281.28 1051.44 281.347 1052.16 281.48C1052.91 281.613 1053.6 281.853 1054.24 282.2C1054.88 282.547 1055.45 283 1055.96 283.56C1056.47 284.093 1056.87 284.693 1057.16 285.36C1057.48 286 1057.69 286.693 1057.8 287.44C1057.93 288.16 1058 288.88 1058 289.6V303C1058 303.72 1057.93 304.453 1057.8 305.2C1057.69 305.92 1057.48 306.613 1057.16 307.28C1056.87 307.92 1056.47 308.52 1055.96 309.08C1055.45 309.613 1054.88 310.053 1054.24 310.4C1053.6 310.747 1052.91 310.987 1052.16 311.12C1051.44 311.253 1050.72 311.32 1050 311.32ZM1050 307.12C1050.48 307.12 1050.93 307 1051.36 306.76C1051.81 306.52 1052.16 306.2 1052.4 305.8C1052.67 305.373 1052.84 304.92 1052.92 304.44C1053 303.96 1053.04 303.48 1053.04 303V289.6C1053.04 289.12 1053 288.64 1052.92 288.16C1052.84 287.68 1052.67 287.24 1052.4 286.84C1052.16 286.413 1051.81 286.08 1051.36 285.84C1050.93 285.6 1050.48 285.48 1050 285.48C1049.52 285.48 1049.05 285.6 1048.6 285.84C1048.17 286.08 1047.83 286.413 1047.56 286.84C1047.32 287.24 1047.16 287.68 1047.08 288.16C1047 288.64 1046.96 289.12 1046.96 289.6V303C1046.96 303.48 1047 303.96 1047.08 304.44C1047.16 304.92 1047.32 305.373 1047.56 305.8C1047.83 306.2 1048.17 306.52 1048.6 306.76C1049.05 307 1049.52 307.12 1050 307.12ZM1050 299.68C1049.79 299.68 1049.59 299.64 1049.4 299.56C1049.21 299.48 1049.05 299.36 1048.92 299.2C1048.81 299.013 1048.73 298.827 1048.68 298.64C1048.65 298.427 1048.64 298.213 1048.64 298V294.6C1048.64 294.387 1048.65 294.187 1048.68 294C1048.73 293.787 1048.81 293.6 1048.92 293.44C1049.05 293.253 1049.21 293.12 1049.4 293.04C1049.59 292.96 1049.79 292.92 1050 292.92C1050.21 292.92 1050.41 292.96 1050.6 293.04C1050.79 293.12 1050.93 293.253 1051.04 293.44C1051.17 293.6 1051.25 293.787 1051.28 294C1051.33 294.187 1051.36 294.387 1051.36 294.6V298C1051.36 298.213 1051.33 298.427 1051.28 298.64C1051.25 298.827 1051.17 299.013 1051.04 299.2C1050.93 299.36 1050.79 299.48 1050.6 299.56C1050.41 299.64 1050.21 299.68 1050 299.68ZM1070 311.32C1069.28 311.32 1068.55 311.253 1067.8 311.12C1067.08 310.987 1066.4 310.747 1065.76 310.4C1065.12 310.053 1064.55 309.613 1064.04 309.08C1063.53 308.52 1063.12 307.92 1062.8 307.28C1062.51 306.613 1062.29 305.92 1062.16 305.2C1062.05 304.453 1062 303.72 1062 303V289.6C1062 288.88 1062.05 288.16 1062.16 287.44C1062.29 286.693 1062.51 286 1062.8 285.36C1063.12 284.693 1063.53 284.093 1064.04 283.56C1064.55 283 1065.12 282.547 1065.76 282.2C1066.4 281.853 1067.08 281.613 1067.8 281.48C1068.55 281.347 1069.28 281.28 1070 281.28C1070.72 281.28 1071.44 281.347 1072.16 281.48C1072.91 281.613 1073.6 281.853 1074.24 282.2C1074.88 282.547 1075.45 283 1075.96 283.56C1076.47 284.093 1076.87 284.693 1077.16 285.36C1077.48 286 1077.69 286.693 1077.8 287.44C1077.93 288.16 1078 288.88 1078 289.6V303C1078 303.72 1077.93 304.453 1077.8 305.2C1077.69 305.92 1077.48 306.613 1077.16 307.28C1076.87 307.92 1076.47 308.52 1075.96 309.08C1075.45 309.613 1074.88 310.053 1074.24 310.4C1073.6 310.747 1072.91 310.987 1072.16 311.12C1071.44 311.253 1070.72 311.32 1070 311.32ZM1070 307.12C1070.48 307.12 1070.93 307 1071.36 306.76C1071.81 306.52 1072.16 306.2 1072.4 305.8C1072.67 305.373 1072.84 304.92 1072.92 304.44C1073 303.96 1073.04 303.48 1073.04 303V289.6C1073.04 289.12 1073 288.64 1072.92 288.16C1072.84 287.68 1072.67 287.24 1072.4 286.84C1072.16 286.413 1071.81 286.08 1071.36 285.84C1070.93 285.6 1070.48 285.48 1070 285.48C1069.52 285.48 1069.05 285.6 1068.6 285.84C1068.17 286.08 1067.83 286.413 1067.56 286.84C1067.32 287.24 1067.16 287.68 1067.08 288.16C1067 288.64 1066.96 289.12 1066.96 289.6V303C1066.96 303.48 1067 303.96 1067.08 304.44C1067.16 304.92 1067.32 305.373 1067.56 305.8C1067.83 306.2 1068.17 306.52 1068.6 306.76C1069.05 307 1069.52 307.12 1070 307.12ZM1070 299.68C1069.79 299.68 1069.59 299.64 1069.4 299.56C1069.21 299.48 1069.05 299.36 1068.92 299.2C1068.81 299.013 1068.73 298.827 1068.68 298.64C1068.65 298.427 1068.64 298.213 1068.64 298V294.6C1068.64 294.387 1068.65 294.187 1068.68 294C1068.73 293.787 1068.81 293.6 1068.92 293.44C1069.05 293.253 1069.21 293.12 1069.4 293.04C1069.59 292.96 1069.79 292.92 1070 292.92C1070.21 292.92 1070.41 292.96 1070.6 293.04C1070.79 293.12 1070.93 293.253 1071.04 293.44C1071.17 293.6 1071.25 293.787 1071.28 294C1071.33 294.187 1071.36 294.387 1071.36 294.6V298C1071.36 298.213 1071.33 298.427 1071.28 298.64C1071.25 298.827 1071.17 299.013 1071.04 299.2C1070.93 299.36 1070.79 299.48 1070.6 299.56C1070.41 299.64 1070.21 299.68 1070 299.68ZM1090 311.32C1089.28 311.32 1088.56 311.24 1087.84 311.08C1087.12 310.947 1086.44 310.707 1085.8 310.36C1085.19 310.013 1084.63 309.573 1084.12 309.04C1083.61 308.507 1083.2 307.92 1082.88 307.28C1082.56 306.613 1082.33 305.933 1082.2 305.24C1082.07 304.52 1082 303.8 1082 303.08C1082 302.333 1082.07 301.613 1082.2 300.92C1082.33 300.2 1082.56 299.52 1082.88 298.88C1083.2 298.213 1083.61 297.627 1084.12 297.12C1084.63 296.587 1085.19 296.133 1085.8 295.76C1085.27 295.413 1084.79 295 1084.36 294.52C1083.93 294.013 1083.59 293.467 1083.32 292.88C1083.08 292.293 1082.89 291.68 1082.76 291.04C1082.65 290.373 1082.6 289.72 1082.6 289.08C1082.6 288.413 1082.65 287.747 1082.76 287.08C1082.89 286.413 1083.11 285.773 1083.4 285.16C1083.69 284.547 1084.07 283.987 1084.52 283.48C1085 282.973 1085.53 282.56 1086.12 282.24C1086.71 281.893 1087.33 281.653 1088 281.52C1088.67 281.36 1089.33 281.28 1090 281.28C1090.67 281.28 1091.33 281.36 1092 281.52C1092.67 281.653 1093.29 281.893 1093.88 282.24C1094.47 282.56 1094.99 282.973 1095.44 283.48C1095.92 283.987 1096.31 284.547 1096.6 285.16C1096.89 285.773 1097.09 286.413 1097.2 287.08C1097.33 287.747 1097.4 288.413 1097.4 289.08C1097.4 289.72 1097.33 290.373 1097.2 291.04C1097.09 291.68 1096.91 292.293 1096.64 292.88C1096.4 293.467 1096.07 294.013 1095.64 294.52C1095.21 295 1094.73 295.413 1094.2 295.76C1094.81 296.133 1095.37 296.587 1095.88 297.12C1096.39 297.627 1096.8 298.213 1097.12 298.88C1097.44 299.52 1097.67 300.2 1097.8 300.92C1097.93 301.613 1098 302.32 1098 303.04C1098 303.787 1097.93 304.52 1097.8 305.24C1097.67 305.933 1097.44 306.613 1097.12 307.28C1096.8 307.92 1096.39 308.507 1095.88 309.04C1095.37 309.573 1094.8 310.013 1094.16 310.36C1093.55 310.707 1092.88 310.947 1092.16 311.08C1091.44 311.24 1090.72 311.32 1090 311.32ZM1090 293.76C1090.32 293.76 1090.61 293.68 1090.88 293.52C1091.15 293.333 1091.37 293.107 1091.56 292.84C1091.75 292.573 1091.89 292.293 1092 292C1092.11 291.707 1092.19 291.413 1092.24 291.12C1092.29 290.8 1092.33 290.48 1092.36 290.16C1092.41 289.84 1092.44 289.52 1092.44 289.2C1092.44 288.8 1092.4 288.387 1092.32 287.96C1092.27 287.533 1092.15 287.147 1091.96 286.8C1091.77 286.427 1091.51 286.12 1091.16 285.88C1090.81 285.613 1090.43 285.48 1090 285.48C1089.57 285.48 1089.19 285.613 1088.84 285.88C1088.49 286.12 1088.23 286.427 1088.04 286.8C1087.85 287.147 1087.72 287.533 1087.64 287.96C1087.59 288.387 1087.56 288.8 1087.56 289.2C1087.56 289.52 1087.57 289.84 1087.6 290.16C1087.65 290.48 1087.71 290.8 1087.76 291.12C1087.81 291.413 1087.89 291.707 1088 292C1088.11 292.293 1088.25 292.573 1088.44 292.84C1088.63 293.107 1088.85 293.333 1089.12 293.52C1089.39 293.68 1089.68 293.76 1090 293.76ZM1090 307.12C1090.48 307.12 1090.93 307 1091.36 306.76C1091.81 306.493 1092.16 306.16 1092.4 305.76C1092.64 305.333 1092.8 304.88 1092.88 304.4C1092.99 303.92 1093.04 303.44 1093.04 302.96C1093.04 302.587 1093.01 302.227 1092.96 301.88C1092.93 301.507 1092.88 301.147 1092.8 300.8C1092.72 300.453 1092.6 300.12 1092.44 299.8C1092.31 299.453 1092.12 299.147 1091.88 298.88C1091.64 298.587 1091.36 298.36 1091.04 298.2C1090.72 298.04 1090.37 297.96 1090 297.96C1089.63 297.96 1089.28 298.04 1088.96 298.2C1088.64 298.36 1088.36 298.587 1088.12 298.88C1087.88 299.147 1087.68 299.453 1087.52 299.8C1087.39 300.12 1087.28 300.453 1087.2 300.8C1087.12 301.147 1087.05 301.507 1087 301.88C1086.97 302.227 1086.96 302.587 1086.96 302.96C1086.96 303.44 1087 303.92 1087.08 304.4C1087.19 304.88 1087.36 305.333 1087.6 305.76C1087.84 306.16 1088.17 306.493 1088.6 306.76C1089.05 307 1089.52 307.12 1090 307.12Z" fill="black"/>
<rect x="390" y="192" width="100" height="56" rx="4" fill="#FFBE25"/>
<path d="M420 235.32C419.28 235.32 418.547 235.253 417.8 235.12C417.08 234.987 416.4 234.747 415.76 234.4C415.12 234.053 414.547 233.613 414.04 233.08C413.533 232.52 413.12 231.92 412.8 231.28C412.507 230.613 412.293 229.92 412.16 229.2C412.053 228.453 412 227.72 412 227V213.6C412 212.88 412.053 212.16 412.16 211.44C412.293 210.693 412.507 210 412.8 209.36C413.12 208.693 413.533 208.093 414.04 207.56C414.547 207 415.12 206.547 415.76 206.2C416.4 205.853 417.08 205.613 417.8 205.48C418.547 205.347 419.28 205.28 420 205.28C420.72 205.28 421.44 205.347 422.16 205.48C422.907 205.613 423.6 205.853 424.24 206.2C424.88 206.547 425.453 207 425.96 207.56C426.467 208.093 426.867 208.693 427.16 209.36C427.48 210 427.693 210.693 427.8 211.44C427.933 212.16 428 212.88 428 213.6V227C428 227.72 427.933 228.453 427.8 229.2C427.693 229.92 427.48 230.613 427.16 231.28C426.867 231.92 426.467 232.52 425.96 233.08C425.453 233.613 424.88 234.053 424.24 234.4C423.6 234.747 422.907 234.987 422.16 235.12C421.44 235.253 420.72 235.32 420 235.32ZM420 231.12C420.48 231.12 420.933 231 421.36 230.76C421.813 230.52 422.16 230.2 422.4 229.8C422.667 229.373 422.84 228.92 422.92 228.44C423 227.96 423.04 227.48 423.04 227V213.6C423.04 213.12 423 212.64 422.92 212.16C422.84 211.68 422.667 211.24 422.4 210.84C422.16 210.413 421.813 210.08 421.36 209.84C420.933 209.6 420.48 209.48 420 209.48C419.52 209.48 419.053 209.6 418.6 209.84C418.173 210.08 417.827 210.413 417.56 210.84C417.32 211.24 417.16 211.68 417.08 212.16C417 212.64 416.96 213.12 416.96 213.6V227C416.96 227.48 417 227.96 417.08 228.44C417.16 228.92 417.32 229.373 417.56 229.8C417.827 230.2 418.173 230.52 418.6 230.76C419.053 231 419.52 231.12 420 231.12ZM420 223.68C419.787 223.68 419.587 223.64 419.4 223.56C419.213 223.48 419.053 223.36 418.92 223.2C418.813 223.013 418.733 222.827 418.68 222.64C418.653 222.427 418.64 222.213 418.64 222V218.6C418.64 218.387 418.653 218.187 418.68 218C418.733 217.787 418.813 217.6 418.92 217.44C419.053 217.253 419.213 217.12 419.4 217.04C419.587 216.96 419.787 216.92 420 216.92C420.213 216.92 420.413 216.96 420.6 217.04C420.787 217.12 420.933 217.253 421.04 217.44C421.173 217.6 421.253 217.787 421.28 218C421.333 218.187 421.36 218.387 421.36 218.6V222C421.36 222.213 421.333 222.427 421.28 222.64C421.253 222.827 421.173 223.013 421.04 223.2C420.933 223.36 420.787 223.48 420.6 223.56C420.413 223.64 420.213 223.68 420 223.68ZM440 235.32C439.28 235.32 438.547 235.253 437.8 235.12C437.08 234.987 436.4 234.747 435.76 234.4C435.12 234.053 434.547 233.613 434.04 233.08C433.533 232.52 433.12 231.92 432.8 231.28C432.507 230.613 432.293 229.92 432.16 229.2C432.053 228.453 432 227.72 432 227V213.6C432 212.88 432.053 212.16 432.16 211.44C432.293 210.693 432.507 210 432.8 209.36C433.12 208.693 433.533 208.093 434.04 207.56C434.547 207 435.12 206.547 435.76 206.2C436.4 205.853 437.08 205.613 437.8 205.48C438.547 205.347 439.28 205.28 440 205.28C440.72 205.28 441.44 205.347 442.16 205.48C442.907 205.613 443.6 205.853 444.24 206.2C444.88 206.547 445.453 207 445.96 207.56C446.467 208.093 446.867 208.693 447.16 209.36C447.48 210 447.693 210.693 447.8 211.44C447.933 212.16 448 212.88 448 213.6V227C448 227.72 447.933 228.453 447.8 229.2C447.693 229.92 447.48 230.613 447.16 231.28C446.867 231.92 446.467 232.52 445.96 233.08C445.453 233.613 444.88 234.053 444.24 234.4C443.6 234.747 442.907 234.987 442.16 235.12C441.44 235.253 440.72 235.32 440 235.32ZM440 231.12C440.48 231.12 440.933 231 441.36 230.76C441.813 230.52 442.16 230.2 442.4 229.8C442.667 229.373 442.84 228.92 442.92 228.44C443 227.96 443.04 227.48 443.04 227V213.6C443.04 213.12 443 212.64 442.92 212.16C442.84 211.68 442.667 211.24 442.4 210.84C442.16 210.413 441.813 210.08 441.36 209.84C440.933 209.6 440.48 209.48 440 209.48C439.52 209.48 439.053 209.6 438.6 209.84C438.173 210.08 437.827 210.413 437.56 210.84C437.32 211.24 437.16 211.68 437.08 212.16C437 212.64 436.96 213.12 436.96 213.6V227C436.96 227.48 437 227.96 437.08 228.44C437.16 228.92 437.32 229.373 437.56 229.8C437.827 230.2 438.173 230.52 438.6 230.76C439.053 231 439.52 231.12 440 231.12ZM440 223.68C439.787 223.68 439.587 223.64 439.4 223.56C439.213 223.48 439.053 223.36 438.92 223.2C438.813 223.013 438.733 222.827 438.68 222.64C438.653 222.427 438.64 222.213 438.64 222V218.6C438.64 218.387 438.653 218.187 438.68 218C438.733 217.787 438.813 217.6 438.92 217.44C439.053 217.253 439.213 217.12 439.4 217.04C439.587 216.96 439.787 216.92 440 216.92C440.213 216.92 440.413 216.96 440.6 217.04C440.787 217.12 440.933 217.253 441.04 217.44C441.173 217.6 441.253 217.787 441.28 218C441.333 218.187 441.36 218.387 441.36 218.6V222C441.36 222.213 441.333 222.427 441.28 222.64C441.253 222.827 441.173 223.013 441.04 223.2C440.933 223.36 440.787 223.48 440.6 223.56C440.413 223.64 440.213 223.68 440 223.68ZM460.76 235V227.76H452V223.56L459.68 205.6H465.68V223.56H467.68V227.76H465.68V235H460.76ZM456.56 223.56H460.76V213.76L456.56 223.56Z" fill="black"/>
<rect x="950" y="192" width="100" height="56" rx="4" fill="#FFBE25"/>
<path d="M980 235.32C979.28 235.32 978.547 235.253 977.8 235.12C977.08 234.987 976.4 234.747 975.76 234.4C975.12 234.053 974.547 233.613 974.04 233.08C973.533 232.52 973.12 231.92 972.8 231.28C972.507 230.613 972.293 229.92 972.16 229.2C972.053 228.453 972 227.72 972 227V213.6C972 212.88 972.053 212.16 972.16 211.44C972.293 210.693 972.507 210 972.8 209.36C973.12 208.693 973.533 208.093 974.04 207.56C974.547 207 975.12 206.547 975.76 206.2C976.4 205.853 977.08 205.613 977.8 205.48C978.547 205.347 979.28 205.28 980 205.28C980.72 205.28 981.44 205.347 982.16 205.48C982.907 205.613 983.6 205.853 984.24 206.2C984.88 206.547 985.453 207 985.96 207.56C986.467 208.093 986.867 208.693 987.16 209.36C987.48 210 987.693 210.693 987.8 211.44C987.933 212.16 988 212.88 988 213.6V227C988 227.72 987.933 228.453 987.8 229.2C987.693 229.92 987.48 230.613 987.16 231.28C986.867 231.92 986.467 232.52 985.96 233.08C985.453 233.613 984.88 234.053 984.24 234.4C983.6 234.747 982.907 234.987 982.16 235.12C981.44 235.253 980.72 235.32 980 235.32ZM980 231.12C980.48 231.12 980.933 231 981.36 230.76C981.813 230.52 982.16 230.2 982.4 229.8C982.667 229.373 982.84 228.92 982.92 228.44C983 227.96 983.04 227.48 983.04 227V213.6C983.04 213.12 983 212.64 982.92 212.16C982.84 211.68 982.667 211.24 982.4 210.84C982.16 210.413 981.813 210.08 981.36 209.84C980.933 209.6 980.48 209.48 980 209.48C979.52 209.48 979.053 209.6 978.6 209.84C978.173 210.08 977.827 210.413 977.56 210.84C977.32 211.24 977.16 211.68 977.08 212.16C977 212.64 976.96 213.12 976.96 213.6V227C976.96 227.48 977 227.96 977.08 228.44C977.16 228.92 977.32 229.373 977.56 229.8C977.827 230.2 978.173 230.52 978.6 230.76C979.053 231 979.52 231.12 980 231.12ZM980 223.68C979.787 223.68 979.587 223.64 979.4 223.56C979.213 223.48 979.053 223.36 978.92 223.2C978.813 223.013 978.733 222.827 978.68 222.64C978.653 222.427 978.64 222.213 978.64 222V218.6C978.64 218.387 978.653 218.187 978.68 218C978.733 217.787 978.813 217.6 978.92 217.44C979.053 217.253 979.213 217.12 979.4 217.04C979.587 216.96 979.787 216.92 980 216.92C980.213 216.92 980.413 216.96 980.6 217.04C980.787 217.12 980.933 217.253 981.04 217.44C981.173 217.6 981.253 217.787 981.28 218C981.333 218.187 981.36 218.387 981.36 218.6V222C981.36 222.213 981.333 222.427 981.28 222.64C981.253 222.827 981.173 223.013 981.04 223.2C980.933 223.36 980.787 223.48 980.6 223.56C980.413 223.64 980.213 223.68 980 223.68ZM1000 235.32C999.28 235.32 998.547 235.253 997.8 235.12C997.08 234.987 996.4 234.747 995.76 234.4C995.12 234.053 994.547 233.613 994.04 233.08C993.533 232.52 993.12 231.92 992.8 231.28C992.507 230.613 992.293 229.92 992.16 229.2C992.053 228.453 992 227.72 992 227V213.6C992 212.88 992.053 212.16 992.16 211.44C992.293 210.693 992.507 210 992.8 209.36C993.12 208.693 993.533 208.093 994.04 207.56C994.547 207 995.12 206.547 995.76 206.2C996.4 205.853 997.08 205.613 997.8 205.48C998.547 205.347 999.28 205.28 1000 205.28C1000.72 205.28 1001.44 205.347 1002.16 205.48C1002.91 205.613 1003.6 205.853 1004.24 206.2C1004.88 206.547 1005.45 207 1005.96 207.56C1006.47 208.093 1006.87 208.693 1007.16 209.36C1007.48 210 1007.69 210.693 1007.8 211.44C1007.93 212.16 1008 212.88 1008 213.6V227C1008 227.72 1007.93 228.453 1007.8 229.2C1007.69 229.92 1007.48 230.613 1007.16 231.28C1006.87 231.92 1006.47 232.52 1005.96 233.08C1005.45 233.613 1004.88 234.053 1004.24 234.4C1003.6 234.747 1002.91 234.987 1002.16 235.12C1001.44 235.253 1000.72 235.32 1000 235.32ZM1000 231.12C1000.48 231.12 1000.93 231 1001.36 230.76C1001.81 230.52 1002.16 230.2 1002.4 229.8C1002.67 229.373 1002.84 228.92 1002.92 228.44C1003 227.96 1003.04 227.48 1003.04 227V213.6C1003.04 213.12 1003 212.64 1002.92 212.16C1002.84 211.68 1002.67 211.24 1002.4 210.84C1002.16 210.413 1001.81 210.08 1001.36 209.84C1000.93 209.6 1000.48 209.48 1000 209.48C999.52 209.48 999.053 209.6 998.6 209.84C998.173 210.08 997.827 210.413 997.56 210.84C997.32 211.24 997.16 211.68 997.08 212.16C997 212.64 996.96 213.12 996.96 213.6V227C996.96 227.48 997 227.96 997.08 228.44C997.16 228.92 997.32 229.373 997.56 229.8C997.827 230.2 998.173 230.52 998.6 230.76C999.053 231 999.52 231.12 1000 231.12ZM1000 223.68C999.787 223.68 999.587 223.64 999.4 223.56C999.213 223.48 999.053 223.36 998.92 223.2C998.813 223.013 998.733 222.827 998.68 222.64C998.653 222.427 998.64 222.213 998.64 222V218.6C998.64 218.387 998.653 218.187 998.68 218C998.733 217.787 998.813 217.6 998.92 217.44C999.053 217.253 999.213 217.12 999.4 217.04C999.587 216.96 999.787 216.92 1000 216.92C1000.21 216.92 1000.41 216.96 1000.6 217.04C1000.79 217.12 1000.93 217.253 1001.04 217.44C1001.17 217.6 1001.25 217.787 1001.28 218C1001.33 218.187 1001.36 218.387 1001.36 218.6V222C1001.36 222.213 1001.33 222.427 1001.28 222.64C1001.25 222.827 1001.17 223.013 1001.04 223.2C1000.93 223.36 1000.79 223.48 1000.6 223.56C1000.41 223.64 1000.21 223.68 1000 223.68ZM1020 235.32C1019.28 235.32 1018.56 235.24 1017.84 235.08C1017.12 234.947 1016.44 234.707 1015.8 234.36C1015.19 234.013 1014.63 233.573 1014.12 233.04C1013.61 232.507 1013.2 231.92 1012.88 231.28C1012.56 230.613 1012.33 229.933 1012.2 229.24C1012.07 228.52 1012 227.8 1012 227.08C1012 226.333 1012.07 225.613 1012.2 224.92C1012.33 224.2 1012.56 223.52 1012.88 222.88C1013.2 222.213 1013.61 221.627 1014.12 221.12C1014.63 220.587 1015.19 220.133 1015.8 219.76C1015.27 219.413 1014.79 219 1014.36 218.52C1013.93 218.013 1013.59 217.467 1013.32 216.88C1013.08 216.293 1012.89 215.68 1012.76 215.04C1012.65 214.373 1012.6 213.72 1012.6 213.08C1012.6 212.413 1012.65 211.747 1012.76 211.08C1012.89 210.413 1013.11 209.773 1013.4 209.16C1013.69 208.547 1014.07 207.987 1014.52 207.48C1015 206.973 1015.53 206.56 1016.12 206.24C1016.71 205.893 1017.33 205.653 1018 205.52C1018.67 205.36 1019.33 205.28 1020 205.28C1020.67 205.28 1021.33 205.36 1022 205.52C1022.67 205.653 1023.29 205.893 1023.88 206.24C1024.47 206.56 1024.99 206.973 1025.44 207.48C1025.92 207.987 1026.31 208.547 1026.6 209.16C1026.89 209.773 1027.09 210.413 1027.2 211.08C1027.33 211.747 1027.4 212.413 1027.4 213.08C1027.4 213.72 1027.33 214.373 1027.2 215.04C1027.09 215.68 1026.91 216.293 1026.64 216.88C1026.4 217.467 1026.07 218.013 1025.64 218.52C1025.21 219 1024.73 219.413 1024.2 219.76C1024.81 220.133 1025.37 220.587 1025.88 221.12C1026.39 221.627 1026.8 222.213 1027.12 222.88C1027.44 223.52 1027.67 224.2 1027.8 224.92C1027.93 225.613 1028 226.32 1028 227.04C1028 227.787 1027.93 228.52 1027.8 229.24C1027.67 229.933 1027.44 230.613 1027.12 231.28C1026.8 231.92 1026.39 232.507 1025.88 233.04C1025.37 233.573 1024.8 234.013 1024.16 234.36C1023.55 234.707 1022.88 234.947 1022.16 235.08C1021.44 235.24 1020.72 235.32 1020 235.32ZM1020 217.76C1020.32 217.76 1020.61 217.68 1020.88 217.52C1021.15 217.333 1021.37 217.107 1021.56 216.84C1021.75 216.573 1021.89 216.293 1022 216C1022.11 215.707 1022.19 215.413 1022.24 215.12C1022.29 214.8 1022.33 214.48 1022.36 214.16C1022.41 213.84 1022.44 213.52 1022.44 213.2C1022.44 212.8 1022.4 212.387 1022.32 211.96C1022.27 211.533 1022.15 211.147 1021.96 210.8C1021.77 210.427 1021.51 210.12 1021.16 209.88C1020.81 209.613 1020.43 209.48 1020 209.48C1019.57 209.48 1019.19 209.613 1018.84 209.88C1018.49 210.12 1018.23 210.427 1018.04 210.8C1017.85 211.147 1017.72 211.533 1017.64 211.96C1017.59 212.387 1017.56 212.8 1017.56 213.2C1017.56 213.52 1017.57 213.84 1017.6 214.16C1017.65 214.48 1017.71 214.8 1017.76 215.12C1017.81 215.413 1017.89 215.707 1018 216C1018.11 216.293 1018.25 216.573 1018.44 216.84C1018.63 217.107 1018.85 217.333 1019.12 217.52C1019.39 217.68 1019.68 217.76 1020 217.76ZM1020 231.12C1020.48 231.12 1020.93 231 1021.36 230.76C1021.81 230.493 1022.16 230.16 1022.4 229.76C1022.64 229.333 1022.8 228.88 1022.88 228.4C1022.99 227.92 1023.04 227.44 1023.04 226.96C1023.04 226.587 1023.01 226.227 1022.96 225.88C1022.93 225.507 1022.88 225.147 1022.8 224.8C1022.72 224.453 1022.6 224.12 1022.44 223.8C1022.31 223.453 1022.12 223.147 1021.88 222.88C1021.64 222.587 1021.36 222.36 1021.04 222.2C1020.72 222.04 1020.37 221.96 1020 221.96C1019.63 221.96 1019.28 222.04 1018.96 222.2C1018.64 222.36 1018.36 222.587 1018.12 222.88C1017.88 223.147 1017.68 223.453 1017.52 223.8C1017.39 224.12 1017.28 224.453 1017.2 224.8C1017.12 225.147 1017.05 225.507 1017 225.88C1016.97 226.227 1016.96 226.587 1016.96 226.96C1016.96 227.44 1017 227.92 1017.08 228.4C1017.19 228.88 1017.36 229.333 1017.6 229.76C1017.84 230.16 1018.17 230.493 1018.6 230.76C1019.05 231 1019.52 231.12 1020 231.12Z" fill="black"/>
</svg>
